<svg width="40" height="40" viewBox="0 0 40 40" fill="none" xmlns="http://www.w3.org/2000/svg">
    <path d="M40 9.28928C39.8435 1.84463 39.8337 3.45384 39.9862 1.13357C39.9953 0.996004 39.8919 0.87714 39.7552 0.86774C28.7289 0.109478 28.3111 0.0220485 27.4567 0.0220485C12.4147 0.0208356 20.3117 -0.226292 0.233886 0.964468C0.0974617 0.972655 -0.00679222 1.0899 0.000345696 1.22696C1.29432 26.1865 1.24707 22.1148 0.586057 38.7497C0.581331 38.8692 0.661457 38.9752 0.777272 39.0027C2.27995 39.3599 2.01364 39.2193 5.51896 39.2218C5.52469 39.2235 12.0879 38.503 12.0939 38.5024C12.1248 38.5075 21.1698 40 21.2013 40C21.2082 40 21.215 39.9997 21.222 39.9991C31.8224 39.106 28.7839 39.3218 35.6227 38.9407L39.6384 39.7573C39.7946 39.7889 39.9379 39.6675 39.9362 39.5097C39.8492 31.3815 40 9.28928 40 9.28928ZM23.6995 8.69678C23.7294 8.6895 23.7721 8.67899 23.8254 8.66474L26.6836 8.01715C28.1476 7.64833 28.364 7.55848 29.6169 6.96628H29.6169C30.1954 7.16802 31.7814 8.05041 32.1835 8.55699C32.4492 8.89236 32.4317 8.96695 32.3482 9.32607C32.3321 9.395 32.3137 9.47435 32.2944 9.56804C32.2931 9.57421 32.2921 9.58057 32.2912 9.58684L31.6626 14.5318C31.0407 14.5549 30.9888 14.507 30.8168 14.3478C30.7458 14.2819 30.6575 14.2 30.5016 14.095C29.5559 13.4568 26.4609 11.1544 25.4836 10.3619L23.5624 8.80998L23.5779 8.79492C23.5987 8.7741 23.6172 8.7461 23.6294 8.71932C23.6391 8.71174 23.6771 8.70234 23.6995 8.69678ZM28.1536 33.5945C28.0974 33.538 4.13561 7.99896 4.11802 7.96368L6.21143 6.34912L35.4658 25.8243C35.224 26.5208 35.1275 27.3201 34.9821 27.9838C34.4682 30.3281 33.8073 31.3538 32.7738 33.5811C31.2946 33.6402 28.2554 33.6288 28.1536 33.5945ZM6.3562 26.6849C6.62553 26.0341 6.9958 24.9872 7.30705 24.4568C8.83718 25.4182 14.8145 31.4563 15.3344 32.2715C15.0465 32.379 13.8097 32.5637 11.7549 33.389C10.453 33.9112 9.22363 34.4065 8.03623 34.0014C7.9178 33.9613 7.60212 33.6919 7.13404 33.2857C6.27909 32.5437 5.50488 32.0091 5.05469 31.742C4.28681 31.2863 4.40645 31.3824 6.3562 26.6849Z" fill="#EA473B"/>
    <path d="M3.05789 26.7376C2.87029 17.0087 3.0798 22.3083 1.9679 0.861267L0.233886 0.96406C0.0974617 0.972247 -0.00679222 1.08949 0.000345696 1.22655L0.923549 19.0346C1.10692 28.547 1.15709 24.3784 0.586057 38.7493C0.581332 38.8688 0.661457 38.9748 0.777272 39.0023C1.62528 39.2039 1.97775 39.2491 2.57432 39.2491C2.55562 39.1849 2.53501 39.8942 3.05789 26.7376Z" fill="#D82B27"/>
    <path d="M16.5788 32.8209C16.5788 32.8209 17.5927 32.4699 16.7592 31.5502C13.3569 27.7351 11.2843 26.353 9.31437 24.1801C8.4911 23.2841 7.30701 24.4563 7.30701 24.4563C15.0061 31.3369 13.4637 30.3409 14.8208 31.6583C15.001 31.8332 15.1431 31.9712 15.3343 32.271C15.2988 32.2843 15.1414 32.3242 14.9237 32.3795C11.7204 33.1921 11.2399 33.7438 9.8096 34.052C11.1444 35.1461 13.4981 33.8112 15.1761 33.2303C15.5773 33.0915 16.1089 32.9443 16.5788 32.8209Z" fill="#D82B27"/>
    <path d="M36.9226 23.7983C36.9225 23.7982 8.95456 5.86639 8.95456 5.86639C8.01758 5.2657 7.00712 5.55477 6.21179 6.34882L35.4662 25.824C35.2244 26.5205 35.1279 27.3198 34.9825 27.9835C34.4686 30.3278 33.8077 31.3535 32.7742 33.5807C32.7742 33.5807 35.4237 34.0928 36.2314 32.2901C38.1268 28.2346 37.6892 27.4697 38.1408 26.1892C38.0872 25.4669 38.187 24.6092 36.9226 23.7983Z" fill="#D82B27"/>
    <path d="M32.2946 9.5674C32.2933 9.57357 32.2923 9.57993 32.2914 9.5862L31.6628 14.5312C31.6628 14.5312 34.1496 16.0754 34.4621 13.5364C34.4622 13.5356 34.4623 13.5348 34.4624 13.534L34.9768 9.35363C34.9777 9.34726 34.9787 9.34079 34.9802 9.33442C34.9998 9.23861 35.0187 9.15754 35.035 9.0871C35.1204 8.71999 35.1383 8.64368 34.8666 8.30084C34.5811 7.94101 33.3017 6.99131 32.3486 6.37546C31.4489 5.76902 30.3804 6.49827 30.3804 6.49827C30.1137 6.70375 29.8753 6.88326 29.6171 6.96564C30.2704 7.32092 31.9259 8.2317 32.1836 8.55635C32.4493 8.89172 32.4318 8.96631 32.3483 9.32543C32.3322 9.39446 32.3138 9.47381 32.2946 9.5674Z" fill="#D82B27"/>
</svg>
