<svg width="56" height="22" viewBox="0 0 56 22" fill="none" xmlns="http://www.w3.org/2000/svg">
    <path d="M52.9013 15.8053C51.9493 15.5559 51.128 15.345 51.128 14.5395C51.128 13.9066 51.5947 13.5038 52.3413 13.5038C53.032 13.4654 53.6667 13.9449 53.7973 14.6545L55.664 13.7339C55.16 12.4681 53.9467 11.701 52.3973 11.701C50.3813 11.701 48.9813 12.9668 48.9813 14.7696C48.9813 16.9752 50.5307 17.3971 51.912 17.7615C52.8827 18.0108 53.704 18.241 53.704 19.0656C53.704 19.7561 53.1627 20.1972 52.3413 20.1972C51.52 20.1972 50.8293 19.7369 50.6427 19.0465L48.776 19.9671C49.2987 21.2329 50.624 22 52.2667 22C54.4507 22 55.8507 20.7534 55.8507 18.7971C55.8507 16.5724 54.208 16.1505 52.9013 15.8053Z" fill="#C79B3B"/>
    <path d="M56 2.78275V3.79922H54.4133V4.75816H55.7947L55.5333 5.73628H54.4133V7.25141H53.3307V2.78275H56Z" fill="#C79B3B"/>
    <path d="M50.6053 3.81841C51.2773 3.81841 51.8187 4.3746 51.8187 5.06503C51.8187 5.75547 51.2773 6.31166 50.6053 6.31166C49.9333 6.31166 49.392 5.75547 49.392 5.06503C49.392 4.3746 49.9333 3.81841 50.6053 3.81841ZM50.6053 7.38567C51.856 7.38567 52.864 6.33083 52.864 5.04585C52.864 3.76087 51.8373 2.72522 50.5867 2.72522C49.336 2.72522 48.328 3.78005 48.328 5.04585C48.328 6.35001 49.3547 7.40485 50.6053 7.38567Z" fill="#C79B3B"/>
    <path d="M30.7067 21.7123H32.7227V15.1723L37.296 21.7123H39.4053V11.7585H37.3707V18.3944L32.8533 11.7585H30.24L30.7067 12.7366V21.7123Z" fill="#C79B3B"/>
    <path d="M46.2373 17.9149C45.9573 18.6245 45.3973 19.1807 44.7253 19.4876C44.3707 19.641 43.9973 19.7177 43.6053 19.7177H42.448V13.7723H43.6053C43.9973 13.7723 44.3707 13.849 44.7253 14.0024C45.416 14.2901 45.9573 14.8655 46.2373 15.5751C46.536 16.3423 46.536 17.1669 46.2373 17.9149ZM45.5653 12.1613C44.9493 11.912 44.296 11.7777 43.6427 11.7393H40.3387V21.6931H43.6427C44.9493 21.6931 46.2 21.1945 47.152 20.2739C47.6 19.8328 47.9733 19.2958 48.216 18.7013C49.0187 16.8217 48.5893 14.6353 47.152 13.2161C46.6853 12.775 46.1627 12.4106 45.5653 12.1613Z" fill="#C79B3B"/>
    <path d="M12.9173 21.7123H7.14934V11.7585H12.9173V13.6956H9.25867V15.7093H12.6L12.096 17.5889H9.25867V19.7753L12.9173 19.7944V21.7123Z" fill="#C79B3B"/>
    <path d="M26.096 13.6956H29.7547V11.7585H24.0053V21.7123H29.7547V19.7944L26.096 19.7753V17.5889H28.9333L29.4373 15.7093H26.096V13.6956Z" fill="#C79B3B"/>
    <path d="M33.4133 7.86517C33.2267 7.30898 33.1333 6.73362 33.152 6.15826L33.1893 0.0210404H35.28L35.2613 6.06236C35.2613 6.73362 35.4107 7.27063 35.7093 7.6542C36.4187 8.42135 37.6133 8.44053 38.3413 7.69256L38.3787 7.6542C38.696 7.27063 38.8453 6.73362 38.8453 6.06236L38.864 0.00186157H40.992L40.9547 6.19661C40.9547 6.77198 40.88 7.34734 40.6934 7.90353C40.5254 8.383 40.2454 8.82411 39.9094 9.20768C39.5547 9.57208 39.144 9.85976 38.6774 10.0324C37.6134 10.4159 36.456 10.4159 35.392 10.0132C34.9254 9.8214 34.5147 9.55289 34.1787 9.16932C33.8427 8.80492 33.5814 8.36381 33.4134 7.86516L33.4133 7.86517Z" fill="#C79B3B"/>
    <path d="M22.9227 7.09799C22.6613 6.46509 22.5307 5.77465 22.5307 5.10339C22.5307 4.41296 22.68 3.7417 22.9413 3.1088C23.2027 2.49508 23.576 1.93889 24.0427 1.4786C24.5093 0.999131 25.0693 0.634734 25.6667 0.385409C26.2827 0.116906 26.9547 -0.0173456 27.6453 0.00183324C28.56 -0.0173561 29.4747 0.231979 30.2773 0.69227C31.024 1.13338 31.64 1.78546 32.032 2.59097L30.128 3.51155C29.904 3.05126 29.5493 2.66769 29.12 2.39918C28.672 2.13068 28.1493 2.01561 27.6267 2.01561C27.2347 2.01561 26.824 2.09232 26.4693 2.24575C26.1147 2.39918 25.7973 2.62933 25.536 2.91701C25.256 3.20469 25.0507 3.54991 24.9013 3.91431C24.584 4.70064 24.584 5.56369 24.8827 6.35002C25.1627 7.09799 25.7413 7.71171 26.4507 8.03775C26.824 8.21036 27.216 8.30625 27.6267 8.28707C28.224 8.30626 28.8213 8.11446 29.3067 7.76925C29.7547 7.44321 30.072 6.94456 30.2027 6.38837H26.7493L27.608 4.58557H32.424C32.4427 4.96914 32.424 5.79383 32.4053 5.96644C32.3493 6.42673 32.2373 6.88702 32.0693 7.32813C31.6027 8.51722 30.688 9.4378 29.5307 9.91727C27.6267 10.7036 25.4613 10.2433 24.0053 8.74737C23.5387 8.2679 23.184 7.71171 22.9227 7.09799H22.9227Z" fill="#C79B3B"/>
    <path d="M0.485333 8.97749V1.05665L0 0.0209961H2.576V8.05691H6.44L5.89867 10.0131H0L0.485333 8.97749Z" fill="#C79B3B"/>
    <path d="M0.485333 20.6767V12.7558L0 11.7202H2.576V19.7561H6.44L5.89867 21.7123H0L0.485333 20.6767Z" fill="#C79B3B"/>
    <path d="M12.9173 10.0132H7.14934V0.0594482H12.9173V1.99651H9.25867V4.01028H12.6L12.096 5.8898H9.25867V8.05701L12.9173 8.0762V10.0132Z" fill="#C79B3B"/>
    <path d="M47.6747 10.0132H41.9253V0.0594482H47.6933V1.99651H44.0347V4.01028H47.376L46.872 5.8898H44.0347V8.05701L47.6933 8.0762V10.0133L47.6747 10.0132Z" fill="#C79B3B"/>
    <path d="M18.4427 2.8211L19.656 6.17739H17.1733L18.4427 2.8211ZM15.736 10.0131L16.464 8.07609H20.3467L21.0933 10.0131H23.2773L19.376 0.0209961H16.3893L17.024 1.32515L13.5893 10.0131H15.736Z" fill="#C79B3B"/>
    <path d="M17.2853 21.8658C17.64 21.9425 17.9947 21.9808 18.368 21.9808C19.0213 22 19.6747 21.8658 20.2907 21.6164C21.448 21.137 22.3627 20.2164 22.8293 19.0273C22.9973 18.5862 23.1093 18.1259 23.1653 17.6656C23.2027 17.2053 23.2027 16.745 23.184 16.2656H18.368V16.2847L17.5093 18.0875H20.944C20.8133 18.6437 20.496 19.1424 20.048 19.4684C19.5627 19.8328 18.984 20.0054 18.3867 19.9862C18.2 19.9862 18.032 19.9671 17.8453 19.9287L17.416 19.8136C17.3413 19.7945 17.2853 19.7561 17.2107 19.7369C16.5013 19.4109 15.9227 18.8163 15.6427 18.0492C15.344 17.2628 15.344 16.3806 15.6613 15.5943C15.8107 15.2299 16.0347 14.8847 16.296 14.597C16.5573 14.3093 16.8933 14.0983 17.248 13.9449C17.6213 13.7915 18.0133 13.7148 18.4053 13.7148C18.928 13.6956 19.4507 13.8298 19.8987 14.0983C20.328 14.3669 20.6827 14.7504 20.9067 15.2107L22.8107 14.2901C22.4187 13.4846 21.8213 12.8325 21.056 12.3914C20.2533 11.9311 19.3573 11.701 18.424 11.701C17.08 11.6818 15.792 12.2188 14.8213 13.1969C14.3547 13.6572 13.9813 14.2134 13.72 14.8271C13.1787 16.0929 13.1787 17.5505 13.7013 18.8163C13.9627 19.4301 14.3173 19.9862 14.7653 20.4657C15.176 20.8876 15.6613 21.2329 16.184 21.5014C16.5511 21.6713 16.9182 21.8091 17.2853 21.8658Z" fill="#C79B3B"/>
</svg>
