<svg width="52" height="40" viewBox="0 0 52 40" fill="none" xmlns="http://www.w3.org/2000/svg">
    <path fill-rule="evenodd" clip-rule="evenodd" d="M10.2192 15.8008H12.286L12.28 15.2713H10.2192V15.8008ZM37.1411 2.48669V0H43.3594V15.2713H36.2433C35.8577 15.2713 35.4701 15.2003 35.0804 15.0583V15.2713H22.7824V15.8008H23.6802L24.4213 15.8814C24.8471 15.9774 25.2468 16.1539 25.6204 16.411L25.8132 16.5664L26.006 16.4167C26.5805 16.0061 27.2292 15.8008 27.9523 15.8008H31.9713C32.6823 15.8008 33.325 16.0023 33.8994 16.4052L34.1103 16.5664L34.3031 16.4167C34.8816 16.0061 35.5303 15.8008 36.2494 15.8008H48.0051V16.4283H52V26.1563C52 27.0044 51.6103 27.6913 50.8311 28.217C50.2205 28.6238 49.5757 28.8272 48.8969 28.8272H44.8839C44.2291 28.8272 43.6025 28.6334 43.0039 28.2458L42.9738 28.2228C42.5882 27.958 42.2849 27.5953 42.064 27.1348C41.8752 26.7319 41.7808 26.329 41.7808 25.926V24.2452H39.3706V27.6644C39.471 27.722 39.5553 27.7757 39.6236 27.8256C40.3989 28.359 40.7866 29.0497 40.7866 29.8978V37.3349C40.7866 38.1868 40.4009 38.8699 39.6297 39.3841C39.0271 39.7947 38.3804 40 37.6895 40H33.6644C32.9856 40 32.3448 39.7985 31.7423 39.3956L31.5374 39.2344L31.3386 39.3841C30.736 39.7947 30.0893 40 29.3984 40H25.3854C24.7226 40 24.0959 39.8062 23.5054 39.4186L23.4753 39.4014L22.9933 38.9984C22.8406 39.1558 22.686 39.2843 22.5293 39.3841C21.9268 39.7947 21.28 40 20.5891 40H16.5701C16.1644 40 15.7747 39.9271 15.4012 39.7813V40H8.28505C7.59413 40 6.95141 39.7985 6.35689 39.3956C5.5776 38.8775 5.18795 38.1906 5.18795 37.3349V33.5991C5.18795 33.4533 5.20201 33.3113 5.23013 33.1731H5.18795V29.8978C5.18795 29.0497 5.56956 28.3609 6.33279 27.8313C6.91927 27.4207 7.57003 27.2154 8.28505 27.2154H8.65261C8.43569 26.7818 8.32723 26.352 8.32723 25.926V21.7585H7.51981V18.3393L7.12213 18.3624H0V13.0263H0.0482039L0 12.6061V5.17485C0 4.31909 0.383623 3.62642 1.15087 3.09685C1.72932 2.69008 2.37806 2.48669 3.0971 2.48669H15.4012C16.1282 2.48669 16.771 2.68624 17.3293 3.08534L17.5402 3.24651L17.721 3.09685C18.3034 2.69008 18.9522 2.48669 19.6672 2.48669H23.6922C24.098 2.48669 24.4856 2.55576 24.8552 2.69391V2.48669H31.0795V2.53849L31.9773 2.48669C32.7003 2.48669 33.3431 2.68624 33.9054 3.08534L34.1103 3.24651L34.2971 3.09685C34.8796 2.69008 35.5283 2.48669 36.2433 2.48669H37.1411Z" fill="#1C1C1C"/>
    <path fill-rule="evenodd" clip-rule="evenodd" d="M13.0392 17.2399V17.8616H17.0461V20.3252H13.0392V24.6884H13.8466V20.9527H17.0461V25.926C17.0461 26.4326 16.8694 26.8048 16.5159 27.0427C16.1624 27.273 15.8049 27.3881 15.4433 27.3881H11.4304C11.0769 27.3881 10.7314 27.2787 10.394 27.06C10.2212 26.9372 10.0807 26.7607 9.97219 26.5304C9.87578 26.3155 9.82758 26.1141 9.82758 25.926V20.3252H9.02619V17.8616H9.82758V17.2399H13.0392ZM31.9713 17.2399C32.3569 17.2399 32.7064 17.3493 33.0197 17.568C33.3853 17.8213 33.568 18.1283 33.568 18.489V23.4336H29.5731V24.6884H30.3504V24.061H33.568V25.926C33.568 26.4326 33.3913 26.8048 33.0378 27.0427C32.6923 27.273 32.3368 27.3881 31.9713 27.3881H27.9523C27.5867 27.3881 27.2272 27.273 26.8737 27.0427C26.5242 26.801 26.3495 26.4287 26.3495 25.926V18.489C26.3495 18.1283 26.5323 17.8213 26.8978 17.568C27.2111 17.3493 27.5626 17.2399 27.9523 17.2399H31.9713ZM30.3504 19.7208H29.5731V20.9527H30.3504V19.7208ZM41.8712 17.2399V19.7208H37.8702V20.3252H41.8712V22.8119H37.8702V27.3881H34.6526V18.489C34.6526 18.1244 34.8334 17.8174 35.1949 17.568C35.5123 17.3493 35.8637 17.2399 36.2494 17.2399H41.8712ZM50.4997 17.8616V20.3252H46.4987V24.6884H47.3001V20.9527H50.4997V26.1563C50.4997 26.5093 50.3229 26.8048 49.9694 27.0427C49.624 27.273 49.2664 27.3881 48.8969 27.3881H44.8839C44.5384 27.3881 44.193 27.2787 43.8475 27.06C43.6748 26.9372 43.5342 26.7607 43.4257 26.5304C43.3293 26.3155 43.2811 26.1141 43.2811 25.926V20.3252H42.4797V17.8616H43.2811V17.2399H46.4987V17.8616H50.4997ZM4.72399 6.40668V11.3743H5.49525V6.40668H4.72399ZM2.04264 4.25385C2.35999 4.03128 2.71147 3.91999 3.09711 3.91999H8.71889V15.6972C8.71889 16.0349 8.52808 16.3362 8.14647 16.601C7.80502 16.8197 7.46358 16.9291 7.12213 16.9291H1.49432V14.4654H5.49525V13.838H3.09711C2.73156 13.838 2.37405 13.719 2.02457 13.4811C1.67107 13.2508 1.49432 12.9592 1.49432 12.6061V5.17485C1.49432 4.80645 1.6771 4.49945 2.04264 4.25385ZM22.0654 10.1194H21.2881V11.3743H22.0654V10.1194ZM18.6188 4.25385C18.9321 4.03128 19.2816 3.91999 19.6672 3.91999H23.6922C24.0779 3.91999 24.4294 4.03128 24.7467 4.25385C25.1123 4.49945 25.295 4.80645 25.295 5.17485V13.838H19.6672C19.3017 13.838 18.9462 13.719 18.6007 13.4811C18.2512 13.2547 18.0765 12.963 18.0765 12.6061V8.87034C18.0765 8.54416 18.2633 8.25059 18.6369 7.98964C18.9703 7.75555 19.3137 7.63851 19.6672 7.63851H22.0654V6.40668H21.2881V7.01108H18.0765V5.17485C18.0765 4.80645 18.2572 4.49945 18.6188 4.25385ZM31.9773 3.91999C32.3669 3.91999 32.7164 4.03128 33.0257 4.25385C33.3913 4.49945 33.5741 4.80645 33.5741 5.17485V13.838H30.3564V6.40668H29.5791V13.838H26.3555V3.91999H29.5791V4.54742C30.1174 4.12913 30.9168 3.91999 31.9773 3.91999ZM38.6415 6.40668H37.8582V11.3743H38.6415V6.40668ZM36.2433 3.91999H38.6415V1.43906H41.8651V13.838H36.2433C35.8778 13.838 35.5203 13.719 35.1708 13.4811C34.8213 13.2547 34.6466 12.963 34.6466 12.6061V5.17485C34.6466 4.80645 34.8274 4.49945 35.1889 4.25385C35.5062 4.03128 35.8577 3.91999 36.2433 3.91999Z" fill="white"/>
    <path fill-rule="evenodd" clip-rule="evenodd" d="M13.003 7.6385H13.7863V6.40667H13.003V7.6385ZM15.4012 3.91998C15.7948 3.91998 16.1463 4.03127 16.4556 4.25384C16.8212 4.49944 17.0039 4.80644 17.0039 5.17484V8.26018C17.0039 8.45205 16.9196 8.59595 16.7509 8.69189C16.5741 8.81085 16.3934 8.87034 16.2086 8.87034C16.3893 8.88569 16.5701 8.94517 16.7509 9.04878C16.9196 9.16006 17.0039 9.30781 17.0039 9.49201V14.4654H21.282V17.2399H23.6802L24.0899 17.2802C24.3189 17.3339 24.5338 17.4298 24.7346 17.568C25.1002 17.8213 25.283 18.1283 25.283 18.489V27.3881H22.0593V19.7208H21.282V27.3881H18.0644V16.929H15.4012C15.0477 16.929 14.6982 16.8197 14.3527 16.6009C13.9751 16.34 13.7863 16.0388 13.7863 15.6972V10.1194H13.003V13.838H9.7854V3.91998H15.4012ZM14.9733 28.6487H18.191V36.103H18.9682V28.6487H22.1859V37.3349C22.1859 37.6879 22.0131 37.9815 21.6677 38.2156C21.3102 38.4496 20.9506 38.5667 20.5891 38.5667H16.5701C16.2086 38.5667 15.8491 38.4496 15.4915 38.2156C15.1461 37.9815 14.9733 37.6879 14.9733 37.3349V28.6487ZM23.7826 29.2761V28.6487H27.0002V29.2761H31.0012V31.7398H27.0002V36.103H27.8076V32.3672H31.0012V37.3349C31.0012 37.6879 30.8264 37.9815 30.4769 38.2156C30.1194 38.4496 29.7599 38.5667 29.3984 38.5667H25.3854C25.0399 38.5667 24.6945 38.4554 24.349 38.2328C23.9714 37.9757 23.7826 37.6764 23.7826 37.3349V31.7398H22.9872V29.2761H23.7826ZM9.89988 34.8482V36.103H10.6892V34.8482H9.89988ZM10.6892 32.3672V31.1354H9.89988V31.7398H6.68829V29.8978C6.68829 29.5371 6.86906 29.232 7.23059 28.9826C7.54793 28.76 7.89942 28.6487 8.28505 28.6487H12.3041C12.6897 28.6487 13.0392 28.76 13.3525 28.9826C13.7221 29.2397 13.9068 29.5448 13.9068 29.8978V38.5667H8.28505C7.92754 38.5667 7.57002 38.4496 7.21251 38.2156C6.86303 37.9853 6.68829 37.6917 6.68829 37.3349V33.5991C6.68829 33.269 6.87508 32.9755 7.24866 32.7184C7.59011 32.4843 7.93557 32.3672 8.28505 32.3672H10.6892ZM36.0686 31.1354H35.2913V36.103H36.0686V31.1354ZM37.6894 28.6487C38.0791 28.6487 38.4306 28.76 38.7439 28.9826C39.1095 29.2359 39.2922 29.5409 39.2922 29.8978V37.3349C39.2922 37.6879 39.1155 37.9815 38.762 38.2156C38.4085 38.4496 38.051 38.5667 37.6894 38.5667H33.6644C33.3069 38.5667 32.9514 38.4496 32.5979 38.2156C32.2484 37.9853 32.0737 37.6917 32.0737 37.3349V29.8978C32.0737 29.5371 32.2545 29.232 32.616 28.9826C32.9293 28.76 33.2788 28.6487 33.6644 28.6487H37.6894Z" fill="white"/>
</svg>
