<svg width="24" height="24" viewBox="0 0 24 24" fill="none" xmlns="http://www.w3.org/2000/svg">
    <path d="M20 3H4C2.89543 3 2 4.01482 2 5.26667V17.7333C2 18.9852 2.89543 20 4 20H20C21.1046 20 22 18.9852 22 17.7333V5.26667C22 4.01482 21.1046 3 20 3Z" stroke="white" stroke-width="1.5" stroke-linecap="round" stroke-linejoin="round"/>
    <path d="M21.1 8H13.9C13.4029 8 13 8.41787 13 8.93333V14.0667C13 14.5821 13.4029 15 13.9 15H21.1C21.5971 15 22 14.5821 22 14.0667V8.93333C22 8.41787 21.5971 8 21.1 8Z" stroke="white" stroke-width="1.5" stroke-linecap="round" stroke-linejoin="round"/>
    <circle cx="16" cy="11.5" r="1" fill="white"/>
</svg>
