<svg width="24" height="24" viewBox="0 0 24 24" fill="none" xmlns="http://www.w3.org/2000/svg">
    <path d="M0 12C0 5.37258 5.37258 0 12 0C18.6274 0 24 5.37258 24 12C24 18.6274 18.6274 24 12 24C5.37258 24 0 18.6274 0 12Z" fill="#296BFD"/>
    <path d="M16.9091 8H7.09091C6.48842 8 6 8.50368 6 9.125V15.875C6 16.4963 6.48842 17 7.09091 17H16.9091C17.5116 17 18 16.4963 18 15.875V9.125C18 8.50368 17.5116 8 16.9091 8Z" stroke="white" stroke-width="1.5" stroke-linecap="round" stroke-linejoin="round"/>
    <path d="M6 11H18" stroke="white" stroke-width="1.5" stroke-linecap="round" stroke-linejoin="round"/>
</svg>
