<svg width="24" height="24" viewBox="0 0 24 24" fill="none" xmlns="http://www.w3.org/2000/svg">
    <path d="M0 12C0 5.37258 5.37258 0 12 0C18.6274 0 24 5.37258 24 12C24 18.6274 18.6274 24 12 24C5.37258 24 0 18.6274 0 12Z" fill="#8B3FFD"/>
    <path d="M13.7998 6.90002C10.7923 6.90002 8.40002 9.32661 8.40002 12.3C8.40002 15.3076 10.8265 17.7 13.7998 17.7C16.7732 17.7 19.1997 15.2734 19.1997 12.3C19.2338 9.32661 16.7732 6.90002 13.7998 6.90002ZM13.7998 14.3165C12.7062 14.3165 11.7834 13.3937 11.7834 12.3C11.7834 11.2063 12.7062 10.2836 13.7998 10.2836C14.8935 10.2836 15.8162 11.2063 15.8162 12.3C15.8162 13.3937 14.9277 14.3165 13.7998 14.3165Z" fill="white"/>
    <path d="M8.40001 8.09998V16.5H6.54419L4.20001 8.09998H8.40001Z" fill="white"/>
</svg>
