<svg width="24" height="24" viewBox="0 0 24 24" fill="none" xmlns="http://www.w3.org/2000/svg">
    <path d="M0 12C0 5.37258 5.37258 0 12 0C18.6274 0 24 5.37258 24 12C24 18.6274 18.6274 24 12 24C5.37258 24 0 18.6274 0 12Z" fill="#FD8C00"/>
    <path d="M17.4118 15.1228C17.6876 15.2288 17.7936 15.6419 17.8147 15.8221C17.8572 16.1509 17.762 16.278 17.6559 16.278C17.5499 16.278 17.4013 16.1509 17.2425 15.8966C17.0834 15.6419 17.0198 15.356 17.1048 15.2074C17.1575 15.1119 17.2738 15.0697 17.4118 15.1228ZM15.801 16.3205C15.9707 16.3205 16.1614 16.3946 16.331 16.5429C16.6595 16.8186 16.755 17.1365 16.5854 17.3697C16.4898 17.4863 16.331 17.5604 16.1509 17.5604C15.9707 17.5604 15.7799 17.4968 15.6528 17.3802C15.356 17.1259 15.2713 16.7016 15.4617 16.4687C15.5362 16.3732 15.6528 16.3205 15.801 16.3205ZM12.0918 19.3834C8.06413 19.3834 4.79999 16.1189 4.79999 12.0915C4.79999 8.06413 8.06446 4.79999 12.0915 4.79999C16.1189 4.79999 19.3834 8.06446 19.3834 12.0915C19.3834 13.4586 19.0019 14.7413 18.3556 15.833C18.3342 15.8646 18.2812 15.8541 18.2706 15.8116C18.0163 14.0206 16.9246 13.0346 15.3349 12.7382C15.1969 12.7167 15.1758 12.6321 15.356 12.611C15.8435 12.5685 16.5323 12.579 16.8927 12.6426C16.9138 12.4624 16.9246 12.2717 16.9246 12.081C16.9246 9.42065 14.7624 7.25839 12.1021 7.25839C9.44206 7.25839 7.2798 9.42065 7.2798 12.081C7.2798 14.7413 9.44206 16.9036 12.1024 16.9036H12.3247C12.2492 16.4733 12.2172 16.0365 12.2292 15.5997C12.2401 15.3029 12.3037 15.2605 12.4308 15.4937C13.0985 16.6489 14.0525 17.6876 15.9176 18.101C17.4438 18.4403 18.97 18.8323 20.6127 20.9201C20.761 21.1003 20.5386 21.291 20.369 21.1428C18.6946 19.6588 17.1684 19.1712 15.7799 19.1712C14.2218 19.1821 13.1624 19.3834 12.0918 19.3834Z" fill="white"/>
</svg>
