<svg width="196" height="196" viewBox="0 0 196 196" fill="none" xmlns="http://www.w3.org/2000/svg">
    <path d="M4 0H0V4H4V0Z" fill="white"/>
    <path d="M8 0H4V4H8V0Z" fill="white"/>
    <path d="M12 0H8V4H12V0Z" fill="white"/>
    <path d="M16 0H12V4H16V0Z" fill="white"/>
    <path d="M20 0H16V4H20V0Z" fill="white"/>
    <path d="M24 0H20V4H24V0Z" fill="white"/>
    <path d="M28 0H24V4H28V0Z" fill="white"/>
    <path d="M36 0H32V4H36V0Z" fill="white"/>
    <path d="M44 0H40V4H44V0Z" fill="white"/>
    <path d="M48 0H44V4H48V0Z" fill="white"/>
    <path d="M68 0H64V4H68V0Z" fill="white"/>
    <path d="M80 0H76V4H80V0Z" fill="white"/>
    <path d="M96 0H92V4H96V0Z" fill="white"/>
    <path d="M100 0H96V4H100V0Z" fill="white"/>
    <path d="M120 0H116V4H120V0Z" fill="white"/>
    <path d="M128 0H124V4H128V0Z" fill="white"/>
    <path d="M136 0H132V4H136V0Z" fill="white"/>
    <path d="M140 0H136V4H140V0Z" fill="white"/>
    <path d="M144 0H140V4H144V0Z" fill="white"/>
    <path d="M148 0H144V4H148V0Z" fill="white"/>
    <path d="M164 0H160V4H164V0Z" fill="white"/>
    <path d="M172 0H168V4H172V0Z" fill="white"/>
    <path d="M176 0H172V4H176V0Z" fill="white"/>
    <path d="M180 0H176V4H180V0Z" fill="white"/>
    <path d="M184 0H180V4H184V0Z" fill="white"/>
    <path d="M188 0H184V4H188V0Z" fill="white"/>
    <path d="M192 0H188V4H192V0Z" fill="white"/>
    <path d="M196 0H192V4H196V0Z" fill="white"/>
    <path d="M4 4H0V8H4V4Z" fill="white"/>
    <path d="M28 4H24V8H28V4Z" fill="white"/>
    <path d="M40 4H36V8H40V4Z" fill="white"/>
    <path d="M44 4H40V8H44V4Z" fill="white"/>
    <path d="M48 4H44V8H48V4Z" fill="white"/>
    <path d="M56 4H52V8H56V4Z" fill="white"/>
    <path d="M60 4H56V8H60V4Z" fill="white"/>
    <path d="M68 4H64V8H68V4Z" fill="white"/>
    <path d="M76 4H72V8H76V4Z" fill="white"/>
    <path d="M80 4H76V8H80V4Z" fill="white"/>
    <path d="M84 4H80V8H84V4Z" fill="white"/>
    <path d="M88 4H84V8H88V4Z" fill="white"/>
    <path d="M96 4H92V8H96V4Z" fill="white"/>
    <path d="M104 4H100V8H104V4Z" fill="white"/>
    <path d="M108 4H104V8H108V4Z" fill="white"/>
    <path d="M112 4H108V8H112V4Z" fill="white"/>
    <path d="M116 4H112V8H116V4Z" fill="white"/>
    <path d="M120 4H116V8H120V4Z" fill="white"/>
    <path d="M124 4H120V8H124L124 4Z" fill="white"/>
    <path d="M132 4H128L128 8H132V4Z" fill="white"/>
    <path d="M136 4H132V8H136V4Z" fill="white"/>
    <path d="M140 4H136V8H140V4Z" fill="white"/>
    <path d="M144 4H140V8H144V4Z" fill="white"/>
    <path d="M152 4H148V8H152V4Z" fill="white"/>
    <path d="M156 4H152V8H156V4Z" fill="white"/>
    <path d="M160 4H156V8H160V4Z" fill="white"/>
    <path d="M164 4H160V8H164V4Z" fill="white"/>
    <path d="M172 4H168V8H172V4Z" fill="white"/>
    <path d="M196 4H192L192 8H196V4Z" fill="white"/>
    <path d="M4 8H0V12H4V8Z" fill="white"/>
    <path d="M12 8H8V12H12V8Z" fill="white"/>
    <path d="M16 8H12V12H16V8Z" fill="white"/>
    <path d="M20 8H16V12H20V8Z" fill="white"/>
    <path d="M28 8H24V12H28V8Z" fill="white"/>
    <path d="M36 8H32V12H36V8Z" fill="white"/>
    <path d="M80 8H76V12H80V8Z" fill="white"/>
    <path d="M88 8H84V12H88V8Z" fill="white"/>
    <path d="M92 8H88V12H92V8Z" fill="white"/>
    <path d="M112 8H108V12H112V8Z" fill="white"/>
    <path d="M116 8H112V12H116V8Z" fill="white"/>
    <path d="M128 8H124L124 12H128L128 8Z" fill="white"/>
    <path d="M136 8H132V12H136V8Z" fill="white"/>
    <path d="M140 8H136V12H140V8Z" fill="white"/>
    <path d="M160 8H156L156 12H160V8Z" fill="white"/>
    <path d="M164 8H160V12H164V8Z" fill="white"/>
    <path d="M172 8H168V12H172V8Z" fill="white"/>
    <path d="M180 8H176V12H180V8Z" fill="white"/>
    <path d="M184 8H180V12H184V8Z" fill="white"/>
    <path d="M188 8H184V12H188V8Z" fill="white"/>
    <path d="M196 8H192V12H196V8Z" fill="white"/>
    <path d="M4 12H0V16H4V12Z" fill="white"/>
    <path d="M12 12H8V16H12V12Z" fill="white"/>
    <path d="M16 12H12V16H16V12Z" fill="white"/>
    <path d="M20 12H16V16H20V12Z" fill="white"/>
    <path d="M28 12H24V16H28V12Z" fill="white"/>
    <path d="M36 12H32V16H36V12Z" fill="white"/>
    <path d="M40 12H36V16H40V12Z" fill="white"/>
    <path d="M44 12H40V16H44V12Z" fill="white"/>
    <path d="M48 12H44V16H48V12Z" fill="white"/>
    <path d="M56 12H52V16H56V12Z" fill="white"/>
    <path d="M64 12H60V16H64V12Z" fill="white"/>
    <path d="M72 12H68V16H72V12Z" fill="white"/>
    <path d="M76 12H72V16H76V12Z" fill="white"/>
    <path d="M100 12H96V16H100V12Z" fill="white"/>
    <path d="M108 12H104V16H108V12Z" fill="white"/>
    <path d="M116 12H112L112 16H116V12Z" fill="white"/>
    <path d="M120 12H116V16H120V12Z" fill="white"/>
    <path d="M128 12H124V16H128V12Z" fill="white"/>
    <path d="M132 12H128V16H132V12Z" fill="white"/>
    <path d="M136 12H132V16H136V12Z" fill="white"/>
    <path d="M140 12H136V16H140V12Z" fill="white"/>
    <path d="M148 12H144V16H148V12Z" fill="white"/>
    <path d="M152 12H148V16H152V12Z" fill="white"/>
    <path d="M160 12H156V16H160V12Z" fill="white"/>
    <path d="M172 12H168V16H172V12Z" fill="white"/>
    <path d="M180 12H176V16H180V12Z" fill="white"/>
    <path d="M184 12H180V16H184V12Z" fill="white"/>
    <path d="M188 12H184V16H188V12Z" fill="white"/>
    <path d="M196 12H192V16H196V12Z" fill="white"/>
    <path d="M4 16H0V20H4V16Z" fill="white"/>
    <path d="M12 16H8V20H12V16Z" fill="white"/>
    <path d="M16 16H12V20H16V16Z" fill="white"/>
    <path d="M20 16H16V20H20V16Z" fill="white"/>
    <path d="M28 16H24V20H28V16Z" fill="white"/>
    <path d="M44 16H40V20H44V16Z" fill="white"/>
    <path d="M48 16H44V20H48V16Z" fill="white"/>
    <path d="M56 16H52V20H56V16Z" fill="white"/>
    <path d="M68 16H64V20H68V16Z" fill="white"/>
    <path d="M72 16H68V20H72V16Z" fill="white"/>
    <path d="M88 16H84V20H88V16Z" fill="white"/>
    <path d="M92 16H88V20H92V16Z" fill="white"/>
    <path d="M96 16H92V20H96V16Z" fill="white"/>
    <path d="M100 16H96V20H100V16Z" fill="white"/>
    <path d="M104 16H100V20H104V16Z" fill="white"/>
    <path d="M108 16H104V20H108V16Z" fill="white"/>
    <path d="M112 16H108V20H112L112 16Z" fill="white"/>
    <path d="M116 16H112L112 20H116V16Z" fill="white"/>
    <path d="M136 16H132V20H136V16Z" fill="white"/>
    <path d="M144 16H140L140 20H144V16Z" fill="white"/>
    <path d="M148 16H144V20H148V16Z" fill="white"/>
    <path d="M172 16H168V20H172V16Z" fill="white"/>
    <path d="M180 16H176V20H180V16Z" fill="white"/>
    <path d="M184 16H180V20H184V16Z" fill="white"/>
    <path d="M188 16H184V20H188V16Z" fill="white"/>
    <path d="M196 16H192V20H196V16Z" fill="white"/>
    <path d="M4 20H0V24H4V20Z" fill="white"/>
    <path d="M28 20H24V24H28V20Z" fill="white"/>
    <path d="M36 20H32V24H36V20Z" fill="white"/>
    <path d="M40 20H36V24H40V20Z" fill="white"/>
    <path d="M44 20H40V24H44V20Z" fill="white"/>
    <path d="M68 20H64V24H68V20Z" fill="white"/>
    <path d="M72 20H68V24H72V20Z" fill="white"/>
    <path d="M80 20H76V24H80V20Z" fill="white"/>
    <path d="M84 20H80V24H84V20Z" fill="white"/>
    <path d="M92 20H88V24H92V20Z" fill="white"/>
    <path d="M108 20H104V24H108V20Z" fill="white"/>
    <path d="M112 20H108V24H112V20Z" fill="white"/>
    <path d="M120 20H116V24H120V20Z" fill="white"/>
    <path d="M124 20H120V24H124V20Z" fill="white"/>
    <path d="M128 20H124V24H128V20Z" fill="white"/>
    <path d="M136 20H132V24H136V20Z" fill="white"/>
    <path d="M140 20H136V24H140L140 20Z" fill="white"/>
    <path d="M152 20H148V24H152V20Z" fill="white"/>
    <path d="M156 20H152V24H156V20Z" fill="white"/>
    <path d="M172 20H168V24H172V20Z" fill="white"/>
    <path d="M196 20H192V24H196V20Z" fill="white"/>
    <path d="M4 24H0V28H4V24Z" fill="white"/>
    <path d="M8 24H4V28H8V24Z" fill="white"/>
    <path d="M12 24H8V28H12V24Z" fill="white"/>
    <path d="M16 24H12V28H16V24Z" fill="white"/>
    <path d="M20 24H16V28H20V24Z" fill="white"/>
    <path d="M24 24H20V28H24V24Z" fill="white"/>
    <path d="M28 24H24V28H28V24Z" fill="white"/>
    <path d="M36 24H32V28H36V24Z" fill="white"/>
    <path d="M44 24H40V28H44V24Z" fill="white"/>
    <path d="M52 24H48V28H52V24Z" fill="white"/>
    <path d="M60 24H56V28H60V24Z" fill="white"/>
    <path d="M68 24H64V28H68V24Z" fill="white"/>
    <path d="M76 24H72V28H76V24Z" fill="white"/>
    <path d="M84 24H80V28H84V24Z" fill="white"/>
    <path d="M92 24H88V28H92V24Z" fill="white"/>
    <path d="M100 24H96V28H100V24Z" fill="white"/>
    <path d="M108 24H104V28H108V24Z" fill="white"/>
    <path d="M116 24H112L112 28H116V24Z" fill="white"/>
    <path d="M124 24H120L120 28H124V24Z" fill="white"/>
    <path d="M132 24H128L128 28H132V24Z" fill="white"/>
    <path d="M140 24H136L136 28H140V24Z" fill="white"/>
    <path d="M148 24H144V28H148V24Z" fill="white"/>
    <path d="M156 24H152L152 28H156V24Z" fill="white"/>
    <path d="M164 24H160V28H164V24Z" fill="white"/>
    <path d="M172 24H168V28H172V24Z" fill="white"/>
    <path d="M176 24H172V28H176V24Z" fill="white"/>
    <path d="M180 24H176V28H180V24Z" fill="white"/>
    <path d="M184 24H180V28H184V24Z" fill="white"/>
    <path d="M188 24H184V28H188V24Z" fill="white"/>
    <path d="M192 24H188V28H192L192 24Z" fill="white"/>
    <path d="M196 24H192L192 28H196V24Z" fill="white"/>
    <path d="M36 28H32V32H36V28Z" fill="white"/>
    <path d="M44 28H40V32H44V28Z" fill="white"/>
    <path d="M52 28H48V32H52V28Z" fill="white"/>
    <path d="M56 28H52V32H56V28Z" fill="white"/>
    <path d="M64 28H60V32H64V28Z" fill="white"/>
    <path d="M68 28H64V32H68V28Z" fill="white"/>
    <path d="M72 28H68V32H72V28Z" fill="white"/>
    <path d="M84 28H80V32H84V28Z" fill="white"/>
    <path d="M92 28H88V32H92V28Z" fill="white"/>
    <path d="M108 28H104V32H108V28Z" fill="white"/>
    <path d="M112 28H108V32H112L112 28Z" fill="white"/>
    <path d="M116 28H112L112 32H116V28Z" fill="white"/>
    <path d="M120 28H116V32H120L120 28Z" fill="white"/>
    <path d="M128 28H124L124 32H128L128 28Z" fill="white"/>
    <path d="M136 28H132V32H136L136 28Z" fill="white"/>
    <path d="M148 28H144V32H148V28Z" fill="white"/>
    <path d="M164 28H160V32H164V28Z" fill="white"/>
    <path d="M4 32H0V36H4V32Z" fill="white"/>
    <path d="M8 32H4V36H8V32Z" fill="white"/>
    <path d="M16 32H12V36H16V32Z" fill="white"/>
    <path d="M28 32H24V36H28V32Z" fill="white"/>
    <path d="M32 32H28V36H32V32Z" fill="white"/>
    <path d="M40 32H36V36H40V32Z" fill="white"/>
    <path d="M52 32H48V36H52V32Z" fill="white"/>
    <path d="M68 32H64V36H68V32Z" fill="white"/>
    <path d="M72 32H68V36H72V32Z" fill="white"/>
    <path d="M76 32H72V36H76V32Z" fill="white"/>
    <path d="M92 32H88V36H92V32Z" fill="white"/>
    <path d="M96 32H92V36H96V32Z" fill="white"/>
    <path d="M100 32H96V36H100V32Z" fill="white"/>
    <path d="M104 32H100V36H104V32Z" fill="white"/>
    <path d="M108 32H104V36H108V32Z" fill="white"/>
    <path d="M112 32H108V36H112V32Z" fill="white"/>
    <path d="M120 32H116V36H120V32Z" fill="white"/>
    <path d="M124 32H120V36H124L124 32Z" fill="white"/>
    <path d="M132 32H128L128 36H132V32Z" fill="white"/>
    <path d="M136 32H132V36H136V32Z" fill="white"/>
    <path d="M144 32H140V36H144V32Z" fill="white"/>
    <path d="M160 32H156V36H160V32Z" fill="white"/>
    <path d="M168 32H164V36H168V32Z" fill="white"/>
    <path d="M172 32H168V36H172V32Z" fill="white"/>
    <path d="M176 32H172V36H176V32Z" fill="white"/>
    <path d="M184 32H180V36H184V32Z" fill="white"/>
    <path d="M188 32H184V36H188V32Z" fill="white"/>
    <path d="M196 32H192V36H196V32Z" fill="white"/>
    <path d="M4 36H0V40H4V36Z" fill="white"/>
    <path d="M8 36H4V40H8V36Z" fill="white"/>
    <path d="M12 36H8V40H12V36Z" fill="white"/>
    <path d="M20 36H16V40H20V36Z" fill="white"/>
    <path d="M32 36H28V40H32V36Z" fill="white"/>
    <path d="M36 36H32V40H36V36Z" fill="white"/>
    <path d="M40 36H36V40H40V36Z" fill="white"/>
    <path d="M52 36H48V40H52V36Z" fill="white"/>
    <path d="M68 36H64V40H68V36Z" fill="white"/>
    <path d="M80 36H76V40H80V36Z" fill="white"/>
    <path d="M88 36H84V40H88V36Z" fill="white"/>
    <path d="M92 36H88V40H92V36Z" fill="white"/>
    <path d="M104 36H100V40H104V36Z" fill="white"/>
    <path d="M108 36H104V40H108V36Z" fill="white"/>
    <path d="M112 36H108V40H112V36Z" fill="white"/>
    <path d="M120 36H116V40H120V36Z" fill="white"/>
    <path d="M124 36H120V40H124V36Z" fill="white"/>
    <path d="M132 36H128V40H132V36Z" fill="white"/>
    <path d="M144 36H140V40H144V36Z" fill="white"/>
    <path d="M152 36H148V40H152V36Z" fill="white"/>
    <path d="M164 36H160V40H164V36Z" fill="white"/>
    <path d="M176 36H172L172 40H176V36Z" fill="white"/>
    <path d="M180 36H176V40H180V36Z" fill="white"/>
    <path d="M184 36H180V40H184V36Z" fill="white"/>
    <path d="M188 36H184V40H188V36Z" fill="white"/>
    <path d="M192 36H188V40H192L192 36Z" fill="white"/>
    <path d="M196 36H192L192 40H196V36Z" fill="white"/>
    <path d="M4 40H0V44H4V40Z" fill="white"/>
    <path d="M12 40H8V44H12V40Z" fill="white"/>
    <path d="M16 40H12V44H16V40Z" fill="white"/>
    <path d="M20 40H16V44H20V40Z" fill="white"/>
    <path d="M28 40H24V44H28V40Z" fill="white"/>
    <path d="M36 40H32V44H36V40Z" fill="white"/>
    <path d="M40 40H36V44H40V40Z" fill="white"/>
    <path d="M44 40H40V44H44V40Z" fill="white"/>
    <path d="M48 40H44V44H48V40Z" fill="white"/>
    <path d="M56 40H52V44H56V40Z" fill="white"/>
    <path d="M64 40H60V44H64V40Z" fill="white"/>
    <path d="M68 40H64V44H68V40Z" fill="white"/>
    <path d="M72 40H68V44H72V40Z" fill="white"/>
    <path d="M80 40H76V44H80V40Z" fill="white"/>
    <path d="M84 40H80V44H84V40Z" fill="white"/>
    <path d="M100 40H96V44H100V40Z" fill="white"/>
    <path d="M112 40H108V44H112V40Z" fill="white"/>
    <path d="M124 40H120L120 44H124V40Z" fill="white"/>
    <path d="M132 40H128V44H132V40Z" fill="white"/>
    <path d="M152 40H148V44H152V40Z" fill="white"/>
    <path d="M156 40H152V44H156V40Z" fill="white"/>
    <path d="M160 40H156V44H160V40Z" fill="white"/>
    <path d="M164 40H160V44H164V40Z" fill="white"/>
    <path d="M172 40H168V44H172L172 40Z" fill="white"/>
    <path d="M176 40H172L172 44H176V40Z" fill="white"/>
    <path d="M192 40H188L188 44H192V40Z" fill="white"/>
    <path d="M196 40H192V44H196V40Z" fill="white"/>
    <path d="M4 44H0V48H4V44Z" fill="white"/>
    <path d="M8 44H4V48H8V44Z" fill="white"/>
    <path d="M16 44H12V48H16V44Z" fill="white"/>
    <path d="M20 44H16V48H20V44Z" fill="white"/>
    <path d="M32 44H28V48H32V44Z" fill="white"/>
    <path d="M48 44H44V48H48V44Z" fill="white"/>
    <path d="M56 44H52V48H56V44Z" fill="white"/>
    <path d="M60 44H56V48H60V44Z" fill="white"/>
    <path d="M64 44H60V48H64V44Z" fill="white"/>
    <path d="M72 44H68V48H72V44Z" fill="white"/>
    <path d="M76 44H72V48H76V44Z" fill="white"/>
    <path d="M80 44H76V48H80V44Z" fill="white"/>
    <path d="M84 44H80V48H84V44Z" fill="white"/>
    <path d="M92 44H88V48H92V44Z" fill="white"/>
    <path d="M104 44H100V48H104V44Z" fill="white"/>
    <path d="M112 44H108V48H112V44Z" fill="white"/>
    <path d="M116 44H112V48H116V44Z" fill="white"/>
    <path d="M128 44H124L124 48H128L128 44Z" fill="white"/>
    <path d="M132 44H128L128 48H132V44Z" fill="white"/>
    <path d="M136 44H132V48H136V44Z" fill="white"/>
    <path d="M140 44H136V48H140V44Z" fill="white"/>
    <path d="M148 44H144V48H148V44Z" fill="white"/>
    <path d="M152 44H148V48H152V44Z" fill="white"/>
    <path d="M160 44H156L156 48H160V44Z" fill="white"/>
    <path d="M168 44H164V48H168L168 44Z" fill="white"/>
    <path d="M172 44H168L168 48H172V44Z" fill="white"/>
    <path d="M184 44H180V48H184V44Z" fill="white"/>
    <path d="M188 44H184V48H188L188 44Z" fill="white"/>
    <path d="M192 44H188L188 48H192V44Z" fill="white"/>
    <path d="M196 44H192V48H196V44Z" fill="white"/>
    <path d="M4 48H0V52H4V48Z" fill="white"/>
    <path d="M20 48H16V52H20V48Z" fill="white"/>
    <path d="M28 48H24V52H28V48Z" fill="white"/>
    <path d="M36 48H32V52H36V48Z" fill="white"/>
    <path d="M40 48H36V52H40V48Z" fill="white"/>
    <path d="M44 48H40V52H44V48Z" fill="white"/>
    <path d="M72 48H68V52H72V48Z" fill="white"/>
    <path d="M84 48H80V52H84V48Z" fill="white"/>
    <path d="M96 48H92V52H96V48Z" fill="white"/>
    <path d="M104 48H100V52H104V48Z" fill="white"/>
    <path d="M108 48H104V52H108V48Z" fill="white"/>
    <path d="M120 48H116V52H120V48Z" fill="white"/>
    <path d="M124 48H120V52H124L124 48Z" fill="white"/>
    <path d="M148 48H144V52H148V48Z" fill="white"/>
    <path d="M152 48H148V52H152V48Z" fill="white"/>
    <path d="M172 48H168L168 52H172V48Z" fill="white"/>
    <path d="M180 48H176V52H180V48Z" fill="white"/>
    <path d="M184 48H180V52H184V48Z" fill="white"/>
    <path d="M192 48H188L188 52H192V48Z" fill="white"/>
    <path d="M4 52H0V56H4V52Z" fill="white"/>
    <path d="M16 52H12V56H16V52Z" fill="white"/>
    <path d="M20 52H16V56H20V52Z" fill="white"/>
    <path d="M44 52H40V56H44V52Z" fill="white"/>
    <path d="M48 52H44V56H48V52Z" fill="white"/>
    <path d="M52 52H48V56H52V52Z" fill="white"/>
    <path d="M56 52H52V56H56V52Z" fill="white"/>
    <path d="M60 52H56V56H60V52Z" fill="white"/>
    <path d="M68 52H64V56H68V52Z" fill="white"/>
    <path d="M72 52H68V56H72V52Z" fill="white"/>
    <path d="M104 52H100V56H104V52Z" fill="white"/>
    <path d="M108 52H104V56H108V52Z" fill="white"/>
    <path d="M120 52H116V56H120V52Z" fill="white"/>
    <path d="M128 52H124L124 56H128V52Z" fill="white"/>
    <path d="M136 52H132V56H136V52Z" fill="white"/>
    <path d="M140 52H136V56H140V52Z" fill="white"/>
    <path d="M144 52H140V56H144V52Z" fill="white"/>
    <path d="M160 52H156V56H160V52Z" fill="white"/>
    <path d="M164 52H160V56H164V52Z" fill="white"/>
    <path d="M4 56H0V60H4V56Z" fill="white"/>
    <path d="M8 56H4V60H8V56Z" fill="white"/>
    <path d="M16 56H12V60H16V56Z" fill="white"/>
    <path d="M28 56H24V60H28V56Z" fill="white"/>
    <path d="M36 56H32V60H36V56Z" fill="white"/>
    <path d="M44 56H40V60H44V56Z" fill="white"/>
    <path d="M48 56H44V60H48V56Z" fill="white"/>
    <path d="M64 56H60V60H64V56Z" fill="white"/>
    <path d="M76 56H72V60H76V56Z" fill="white"/>
    <path d="M80 56H76V60H80V56Z" fill="white"/>
    <path d="M84 56H80V60H84V56Z" fill="white"/>
    <path d="M88 56H84V60H88V56Z" fill="white"/>
    <path d="M96 56H92V60H96V56Z" fill="white"/>
    <path d="M120 56H116V60H120V56Z" fill="white"/>
    <path d="M124 56H120V60H124L124 56Z" fill="white"/>
    <path d="M148 56H144V60H148V56Z" fill="white"/>
    <path d="M156 56H152V60H156L156 56Z" fill="white"/>
    <path d="M160 56H156L156 60H160V56Z" fill="white"/>
    <path d="M172 56H168V60H172V56Z" fill="white"/>
    <path d="M176 56H172V60H176V56Z" fill="white"/>
    <path d="M188 56H184V60H188V56Z" fill="white"/>
    <path d="M196 56H192V60H196V56Z" fill="white"/>
    <path d="M4 60H0V64H4V60Z" fill="white"/>
    <path d="M8 60H4V64H8V60Z" fill="white"/>
    <path d="M16 60H12V64H16V60Z" fill="white"/>
    <path d="M20 60H16V64H20V60Z" fill="white"/>
    <path d="M32 60H28V64H32V60Z" fill="white"/>
    <path d="M36 60H32V64H36V60Z" fill="white"/>
    <path d="M48 60H44V64H48V60Z" fill="white"/>
    <path d="M64 60H60V64H64V60Z" fill="white"/>
    <path d="M72 60H68V64H72V60Z" fill="white"/>
    <path d="M80 60H76V64H80V60Z" fill="white"/>
    <path d="M84 60H80V64H84V60Z" fill="white"/>
    <path d="M88 60H84V64H88V60Z" fill="white"/>
    <path d="M96 60H92V64H96V60Z" fill="white"/>
    <path d="M104 60H100V64H104V60Z" fill="white"/>
    <path d="M108 60H104V64H108V60Z" fill="white"/>
    <path d="M112 60H108V64H112V60Z" fill="white"/>
    <path d="M120 60H116V64H120V60Z" fill="white"/>
    <path d="M124 60H120V64H124V60Z" fill="white"/>
    <path d="M136 60H132V64H136V60Z" fill="white"/>
    <path d="M156 60H152V64H156V60Z" fill="white"/>
    <path d="M168 60H164V64H168L168 60Z" fill="white"/>
    <path d="M176 60H172L172 64H176V60Z" fill="white"/>
    <path d="M192 60H188L188 64H192L192 60Z" fill="white"/>
    <path d="M8 64H4V68H8V64Z" fill="white"/>
    <path d="M20 64H16V68H20V64Z" fill="white"/>
    <path d="M24 64H20V68H24V64Z" fill="white"/>
    <path d="M28 64H24V68H28V64Z" fill="white"/>
    <path d="M48 64H44V68H48V64Z" fill="white"/>
    <path d="M52 64H48V68H52V64Z" fill="white"/>
    <path d="M56 64H52V68H56V64Z" fill="white"/>
    <path d="M60 64H56V68H60V64Z" fill="white"/>
    <path d="M72 64H68V68H72V64Z" fill="white"/>
    <path d="M84 64H80V68H84V64Z" fill="white"/>
    <path d="M88 64H84V68H88V64Z" fill="white"/>
    <path d="M104 64H100V68H104V64Z" fill="white"/>
    <path d="M108 64H104V68H108V64Z" fill="white"/>
    <path d="M112 64H108V68H112V64Z" fill="white"/>
    <path d="M116 64H112V68H116V64Z" fill="white"/>
    <path d="M120 64H116V68H120V64Z" fill="white"/>
    <path d="M124 64H120V68H124V64Z" fill="white"/>
    <path d="M132 64H128V68H132V64Z" fill="white"/>
    <path d="M136 64H132V68H136V64Z" fill="white"/>
    <path d="M140 64H136V68H140V64Z" fill="white"/>
    <path d="M160 64H156L156 68H160V64Z" fill="white"/>
    <path d="M172 64H168L168 68H172L172 64Z" fill="white"/>
    <path d="M176 64H172L172 68H176V64Z" fill="white"/>
    <path d="M184 64H180V68H184V64Z" fill="white"/>
    <path d="M192 64H188V68H192V64Z" fill="white"/>
    <path d="M196 64H192V68H196V64Z" fill="white"/>
    <path d="M12 68H8V72H12V68Z" fill="white"/>
    <path d="M16 68H12V72H16V68Z" fill="white"/>
    <path d="M20 68H16V72H20V68Z" fill="white"/>
    <path d="M24 68H20V72H24V68Z" fill="white"/>
    <path d="M32 68H28V72H32V68Z" fill="white"/>
    <path d="M36 68H32V72H36V68Z" fill="white"/>
    <path d="M40 68H36V72H40V68Z" fill="white"/>
    <path d="M48 68H44V72H48V68Z" fill="white"/>
    <path d="M56 68H52V72H56V68Z" fill="white"/>
    <path d="M64 68H60V72H64V68Z" fill="white"/>
    <path d="M72 68H68V72H72V68Z" fill="white"/>
    <path d="M84 68H80V72H84V68Z" fill="white"/>
    <path d="M92 68H88V72H92V68Z" fill="white"/>
    <path d="M108 68H104V72H108V68Z" fill="white"/>
    <path d="M112 68H108V72H112V68Z" fill="white"/>
    <path d="M124 68H120L120 72H124V68Z" fill="white"/>
    <path d="M128 68H124V72H128L128 68Z" fill="white"/>
    <path d="M132 68H128L128 72H132V68Z" fill="white"/>
    <path d="M140 68H136L136 72H140V68Z" fill="white"/>
    <path d="M144 68H140V72H144V68Z" fill="white"/>
    <path d="M148 68H144V72H148V68Z" fill="white"/>
    <path d="M156 68H152V72H156L156 68Z" fill="white"/>
    <path d="M160 68H156L156 72H160V68Z" fill="white"/>
    <path d="M172 68H168V72H172V68Z" fill="white"/>
    <path d="M180 68H176V72H180V68Z" fill="white"/>
    <path d="M184 68H180V72H184V68Z" fill="white"/>
    <path d="M196 68H192L192 72H196V68Z" fill="white"/>
    <path d="M4 72H0V76H4V72Z" fill="white"/>
    <path d="M8 72H4V76H8V72Z" fill="white"/>
    <path d="M24 72H20V76H24V72Z" fill="white"/>
    <path d="M28 72H24V76H28V72Z" fill="white"/>
    <path d="M32 72H28V76H32V72Z" fill="white"/>
    <path d="M36 72H32V76H36V72Z" fill="white"/>
    <path d="M52 72H48V76H52V72Z" fill="white"/>
    <path d="M64 72H60V76H64V72Z" fill="white"/>
    <path d="M68 72H64V76H68V72Z" fill="white"/>
    <path d="M76 72H72V76H76V72Z" fill="white"/>
    <path d="M80 72H76V76H80V72Z" fill="white"/>
    <path d="M88 72H84V76H88V72Z" fill="white"/>
    <path d="M108 72H104V76H108V72Z" fill="white"/>
    <path d="M120 72H116V76H120L120 72Z" fill="white"/>
    <path d="M124 72H120L120 76H124V72Z" fill="white"/>
    <path d="M132 72H128L128 76H132V72Z" fill="white"/>
    <path d="M136 72H132V76H136L136 72Z" fill="white"/>
    <path d="M148 72H144V76H148V72Z" fill="white"/>
    <path d="M156 72H152V76H156V72Z" fill="white"/>
    <path d="M160 72H156V76H160V72Z" fill="white"/>
    <path d="M168 72H164V76H168L168 72Z" fill="white"/>
    <path d="M172 72H168L168 76H172V72Z" fill="white"/>
    <path d="M176 72H172V76H176V72Z" fill="white"/>
    <path d="M180 72H176V76H180V72Z" fill="white"/>
    <path d="M192 72H188V76H192L192 72Z" fill="white"/>
    <path d="M20 76H16V80H20V76Z" fill="white"/>
    <path d="M24 76H20V80H24V76Z" fill="white"/>
    <path d="M32 76H28V80H32V76Z" fill="white"/>
    <path d="M40 76H36V80H40V76Z" fill="white"/>
    <path d="M48 76H44V80H48V76Z" fill="white"/>
    <path d="M52 76H48V80H52V76Z" fill="white"/>
    <path d="M72 76H68V80H72V76Z" fill="white"/>
    <path d="M76 76H72V80H76V76Z" fill="white"/>
    <path d="M84 76H80V80H84V76Z" fill="white"/>
    <path d="M92 76H88V80H92V76Z" fill="white"/>
    <path d="M96 76H92V80H96V76Z" fill="white"/>
    <path d="M100 76H96V80H100V76Z" fill="white"/>
    <path d="M104 76H100V80H104V76Z" fill="white"/>
    <path d="M108 76H104V80H108V76Z" fill="white"/>
    <path d="M128 76H124L124 80H128L128 76Z" fill="white"/>
    <path d="M136 76H132V80H136V76Z" fill="white"/>
    <path d="M140 76H136V80H140V76Z" fill="white"/>
    <path d="M148 76H144V80H148V76Z" fill="white"/>
    <path d="M152 76H148V80H152L152 76Z" fill="white"/>
    <path d="M160 76H156L156 80H160V76Z" fill="white"/>
    <path d="M164 76H160V80H164V76Z" fill="white"/>
    <path d="M168 76H164V80H168V76Z" fill="white"/>
    <path d="M188 76H184V80H188L188 76Z" fill="white"/>
    <path d="M192 76H188L188 80H192V76Z" fill="white"/>
    <path d="M196 76H192V80H196V76Z" fill="white"/>
    <path d="M12 80H8V84H12V80Z" fill="white"/>
    <path d="M24 80H20V84H24V80Z" fill="white"/>
    <path d="M28 80H24V84H28V80Z" fill="white"/>
    <path d="M40 80H36V84H40V80Z" fill="white"/>
    <path d="M56 80H52V84H56V80Z" fill="white"/>
    <path d="M68 80H64V84H68V80Z" fill="white"/>
    <path d="M72 80H68V84H72V80Z" fill="white"/>
    <path d="M80 80H76V84H80V80Z" fill="white"/>
    <path d="M88 80H84V84H88V80Z" fill="white"/>
    <path d="M92 80H88V84H92V80Z" fill="white"/>
    <path d="M108 80H104V84H108V80Z" fill="white"/>
    <path d="M112 80H108V84H112V80Z" fill="white"/>
    <path d="M116 80H112V84H116V80Z" fill="white"/>
    <path d="M120 80H116V84H120V80Z" fill="white"/>
    <path d="M124 80H120V84H124L124 80Z" fill="white"/>
    <path d="M136 80H132V84H136V80Z" fill="white"/>
    <path d="M140 80H136V84H140V80Z" fill="white"/>
    <path d="M144 80H140V84H144V80Z" fill="white"/>
    <path d="M168 80H164V84H168V80Z" fill="white"/>
    <path d="M176 80H172V84H176V80Z" fill="white"/>
    <path d="M188 80H184V84H188V80Z" fill="white"/>
    <path d="M196 80H192L192 84H196V80Z" fill="white"/>
    <path d="M4 84H0V88H4V84Z" fill="white"/>
    <path d="M20 84H16V88H20V84Z" fill="white"/>
    <path d="M40 84H36V88H40V84Z" fill="white"/>
    <path d="M60 84H56V88H60V84Z" fill="white"/>
    <path d="M64 84H60V88H64V84Z" fill="white"/>
    <path d="M68 84H64V88H68V84Z" fill="white"/>
    <path d="M72 84H68V88H72V84Z" fill="white"/>
    <path d="M88 84H84V88H88V84Z" fill="white"/>
    <path d="M92 84H88V88H92V84Z" fill="white"/>
    <path d="M96 84H92V88H96V84Z" fill="white"/>
    <path d="M104 84H100V88H104V84Z" fill="white"/>
    <path d="M112 84H108V88H112V84Z" fill="white"/>
    <path d="M120 84H116V88H120V84Z" fill="white"/>
    <path d="M124 84H120V88H124V84Z" fill="white"/>
    <path d="M128 84H124V88H128V84Z" fill="white"/>
    <path d="M132 84H128V88H132V84Z" fill="white"/>
    <path d="M148 84H144V88H148V84Z" fill="white"/>
    <path d="M152 84H148V88H152V84Z" fill="white"/>
    <path d="M160 84H156V88H160V84Z" fill="white"/>
    <path d="M172 84H168L168 88H172L172 84Z" fill="white"/>
    <path d="M176 84H172L172 88H176V84Z" fill="white"/>
    <path d="M196 84H192V88H196V84Z" fill="white"/>
    <path d="M4 88H0V92H4V88Z" fill="white"/>
    <path d="M12 88H8V92H12V88Z" fill="white"/>
    <path d="M20 88H16V92H20V88Z" fill="white"/>
    <path d="M24 88H20V92H24V88Z" fill="white"/>
    <path d="M28 88H24V92H28V88Z" fill="white"/>
    <path d="M32 88H28V92H32V88Z" fill="white"/>
    <path d="M36 88H32V92H36V88Z" fill="white"/>
    <path d="M52 88H48V92H52V88Z" fill="white"/>
    <path d="M60 88H56V92H60V88Z" fill="white"/>
    <path d="M72 88H68V92H72V88Z" fill="white"/>
    <path d="M92 88H88V92H92V88Z" fill="white"/>
    <path d="M96 88H92V92H96V88Z" fill="white"/>
    <path d="M100 88H96V92H100V88Z" fill="white"/>
    <path d="M104 88H100V92H104V88Z" fill="white"/>
    <path d="M108 88H104V92H108V88Z" fill="white"/>
    <path d="M112 88H108V92H112V88Z" fill="white"/>
    <path d="M116 88H112V92H116V88Z" fill="white"/>
    <path d="M124 88H120L120 92H124V88Z" fill="white"/>
    <path d="M128 88H124V92H128V88Z" fill="white"/>
    <path d="M140 88H136V92H140V88Z" fill="white"/>
    <path d="M144 88H140V92H144V88Z" fill="white"/>
    <path d="M160 88H156V92H160V88Z" fill="white"/>
    <path d="M164 88H160V92H164V88Z" fill="white"/>
    <path d="M168 88H164V92H168L168 88Z" fill="white"/>
    <path d="M172 88H168L168 92H172V88Z" fill="white"/>
    <path d="M176 88H172V92H176V88Z" fill="white"/>
    <path d="M180 88H176V92H180V88Z" fill="white"/>
    <path d="M184 88H180V92H184V88Z" fill="white"/>
    <path d="M192 88H188V92H192L192 88Z" fill="white"/>
    <path d="M196 88H192L192 92H196V88Z" fill="white"/>
    <path d="M4 92H0V96H4V92Z" fill="white"/>
    <path d="M8 92H4V96H8V92Z" fill="white"/>
    <path d="M16 92H12V96H16V92Z" fill="white"/>
    <path d="M20 92H16V96H20V92Z" fill="white"/>
    <path d="M36 92H32V96H36V92Z" fill="white"/>
    <path d="M48 92H44V96H48V92Z" fill="white"/>
    <path d="M52 92H48V96H52V92Z" fill="white"/>
    <path d="M56 92H52V96H56V92Z" fill="white"/>
    <path d="M64 92H60V96H64V92Z" fill="white"/>
    <path d="M76 92H72V96H76V92Z" fill="white"/>
    <path d="M84 92H80V96H84V92Z" fill="white"/>
    <path d="M92 92H88V96H92V92Z" fill="white"/>
    <path d="M108 92H104V96H108V92Z" fill="white"/>
    <path d="M124 92H120V96H124V92Z" fill="white"/>
    <path d="M128 92H124V96H128V92Z" fill="white"/>
    <path d="M148 92H144V96H148V92Z" fill="white"/>
    <path d="M152 92H148V96H152V92Z" fill="white"/>
    <path d="M164 92H160V96H164V92Z" fill="white"/>
    <path d="M180 92H176V96H180V92Z" fill="white"/>
    <path d="M184 92H180V96H184V92Z" fill="white"/>
    <path d="M188 92H184V96H188L188 92Z" fill="white"/>
    <path d="M4 96H0V100H4V96Z" fill="white"/>
    <path d="M20 96H16V100H20V96Z" fill="white"/>
    <path d="M28 96H24V100H28V96Z" fill="white"/>
    <path d="M36 96H32V100H36V96Z" fill="white"/>
    <path d="M44 96H40V100H44V96Z" fill="white"/>
    <path d="M56 96H52V100H56V96Z" fill="white"/>
    <path d="M64 96H60V100H64V96Z" fill="white"/>
    <path d="M68 96H64V100H68V96Z" fill="white"/>
    <path d="M76 96H72V100H76V96Z" fill="white"/>
    <path d="M84 96H80V100H84V96Z" fill="white"/>
    <path d="M88 96H84V100H88V96Z" fill="white"/>
    <path d="M92 96H88V100H92V96Z" fill="white"/>
    <path d="M100 96H96V100H100V96Z" fill="white"/>
    <path d="M108 96H104V100H108V96Z" fill="white"/>
    <path d="M124 96H120V100H124V96Z" fill="white"/>
    <path d="M152 96H148V100H152V96Z" fill="white"/>
    <path d="M160 96H156V100H160V96Z" fill="white"/>
    <path d="M164 96H160V100H164V96Z" fill="white"/>
    <path d="M172 96H168V100H172V96Z" fill="white"/>
    <path d="M180 96H176V100H180V96Z" fill="white"/>
    <path d="M188 96H184L184 100H188V96Z" fill="white"/>
    <path d="M196 96H192V100H196V96Z" fill="white"/>
    <path d="M4 100H0V104H4V100Z" fill="white"/>
    <path d="M12 100H8V104H12V100Z" fill="white"/>
    <path d="M20 100H16V104H20V100Z" fill="white"/>
    <path d="M36 100H32V104H36V100Z" fill="white"/>
    <path d="M44 100H40V104H44V100Z" fill="white"/>
    <path d="M48 100H44V104H48V100Z" fill="white"/>
    <path d="M68 100H64V104H68V100Z" fill="white"/>
    <path d="M72 100H68V104H72V100Z" fill="white"/>
    <path d="M92 100H88V104H92V100Z" fill="white"/>
    <path d="M108 100H104V104H108V100Z" fill="white"/>
    <path d="M112 100H108V104H112V100Z" fill="white"/>
    <path d="M116 100H112V104H116V100Z" fill="white"/>
    <path d="M120 100H116V104H120L120 100Z" fill="white"/>
    <path d="M124 100H120L120 104H124V100Z" fill="white"/>
    <path d="M128 100H124V104H128V100Z" fill="white"/>
    <path d="M136 100H132V104H136V100Z" fill="white"/>
    <path d="M140 100H136V104H140V100Z" fill="white"/>
    <path d="M152 100H148V104H152V100Z" fill="white"/>
    <path d="M160 100H156V104H160V100Z" fill="white"/>
    <path d="M164 100H160V104H164V100Z" fill="white"/>
    <path d="M180 100H176V104H180V100Z" fill="white"/>
    <path d="M184 100H180V104H184L184 100Z" fill="white"/>
    <path d="M4 104H0V108H4V104Z" fill="white"/>
    <path d="M8 104H4V108H8V104Z" fill="white"/>
    <path d="M20 104H16V108H20V104Z" fill="white"/>
    <path d="M24 104H20V108H24V104Z" fill="white"/>
    <path d="M28 104H24V108H28V104Z" fill="white"/>
    <path d="M32 104H28V108H32V104Z" fill="white"/>
    <path d="M36 104H32V108H36V104Z" fill="white"/>
    <path d="M40 104H36V108H40V104Z" fill="white"/>
    <path d="M60 104H56V108H60V104Z" fill="white"/>
    <path d="M68 104H64V108H68V104Z" fill="white"/>
    <path d="M72 104H68V108H72V104Z" fill="white"/>
    <path d="M80 104H76V108H80V104Z" fill="white"/>
    <path d="M92 104H88V108H92V104Z" fill="white"/>
    <path d="M96 104H92V108H96V104Z" fill="white"/>
    <path d="M100 104H96V108H100V104Z" fill="white"/>
    <path d="M104 104H100V108H104V104Z" fill="white"/>
    <path d="M108 104H104V108H108V104Z" fill="white"/>
    <path d="M120 104H116V108H120V104Z" fill="white"/>
    <path d="M124 104H120V108H124V104Z" fill="white"/>
    <path d="M128 104H124V108H128V104Z" fill="white"/>
    <path d="M132 104H128V108H132V104Z" fill="white"/>
    <path d="M156 104H152L152 108H156L156 104Z" fill="white"/>
    <path d="M164 104H160V108H164V104Z" fill="white"/>
    <path d="M168 104H164V108H168V104Z" fill="white"/>
    <path d="M172 104H168V108H172V104Z" fill="white"/>
    <path d="M176 104H172V108H176V104Z" fill="white"/>
    <path d="M180 104H176V108H180V104Z" fill="white"/>
    <path d="M184 104H180V108H184V104Z" fill="white"/>
    <path d="M192 104H188V108H192V104Z" fill="white"/>
    <path d="M4 108H0V112H4V108Z" fill="white"/>
    <path d="M8 108H4V112H8V108Z" fill="white"/>
    <path d="M12 108H8V112H12V108Z" fill="white"/>
    <path d="M32 108H28V112H32V108Z" fill="white"/>
    <path d="M36 108H32V112H36V108Z" fill="white"/>
    <path d="M44 108H40V112H44V108Z" fill="white"/>
    <path d="M48 108H44V112H48V108Z" fill="white"/>
    <path d="M72 108H68V112H72V108Z" fill="white"/>
    <path d="M76 108H72V112H76V108Z" fill="white"/>
    <path d="M80 108H76V112H80V108Z" fill="white"/>
    <path d="M88 108H84V112H88V108Z" fill="white"/>
    <path d="M96 108H92V112H96V108Z" fill="white"/>
    <path d="M100 108H96V112H100V108Z" fill="white"/>
    <path d="M124 108H120L120 112H124V108Z" fill="white"/>
    <path d="M132 108H128L128 112H132V108Z" fill="white"/>
    <path d="M136 108H132V112H136V108Z" fill="white"/>
    <path d="M140 108H136V112H140V108Z" fill="white"/>
    <path d="M144 108H140V112H144V108Z" fill="white"/>
    <path d="M164 108H160V112H164V108Z" fill="white"/>
    <path d="M176 108H172L172 112H176V108Z" fill="white"/>
    <path d="M180 108H176V112H180V108Z" fill="white"/>
    <path d="M192 108H188V112H192V108Z" fill="white"/>
    <path d="M196 108H192V112H196V108Z" fill="white"/>
    <path d="M4 112H0V116H4V112Z" fill="white"/>
    <path d="M8 112H4V116H8V112Z" fill="white"/>
    <path d="M12 112H8V116H12V112Z" fill="white"/>
    <path d="M16 112L12 112V116H16V112Z" fill="white"/>
    <path d="M24 112H20V116H24V112Z" fill="white"/>
    <path d="M28 112L24 112V116H28V112Z" fill="white"/>
    <path d="M48 112H44V116H48V112Z" fill="white"/>
    <path d="M52 112L48 112V116H52V112Z" fill="white"/>
    <path d="M56 112H52V116H56V112Z" fill="white"/>
    <path d="M60 112H56V116H60V112Z" fill="white"/>
    <path d="M72 112H68V116H72V112Z" fill="white"/>
    <path d="M80 112H76V116H80V112Z" fill="white"/>
    <path d="M100 112H96V116H100V112Z" fill="white"/>
    <path d="M108 112H104V116H108V112Z" fill="white"/>
    <path d="M112 112H108V116H112V112Z" fill="white"/>
    <path d="M116 112H112V116H116V112Z" fill="white"/>
    <path d="M120 112L116 112V116H120L120 112Z" fill="white"/>
    <path d="M136 112H132V116H136V112Z" fill="white"/>
    <path d="M140 112H136V116H140V112Z" fill="white"/>
    <path d="M144 112H140V116H144V112Z" fill="white"/>
    <path d="M148 112L144 112V116H148V112Z" fill="white"/>
    <path d="M156 112H152V116H156V112Z" fill="white"/>
    <path d="M164 112H160V116H164V112Z" fill="white"/>
    <path d="M168 112L164 112V116H168V112Z" fill="white"/>
    <path d="M172 112L168 112V116H172L172 112Z" fill="white"/>
    <path d="M192 112H188V116H192V112Z" fill="white"/>
    <path d="M4 116H0V120H4V116Z" fill="white"/>
    <path d="M8 116H4V120H8V116Z" fill="white"/>
    <path d="M16 116H12V120H16V116Z" fill="white"/>
    <path d="M20 116H16V120H20V116Z" fill="white"/>
    <path d="M32 116H28V120H32V116Z" fill="white"/>
    <path d="M52 116H48V120H52V116Z" fill="white"/>
    <path d="M60 116H56V120H60V116Z" fill="white"/>
    <path d="M76 116H72V120H76V116Z" fill="white"/>
    <path d="M80 116H76V120H80V116Z" fill="white"/>
    <path d="M88 116H84V120H88V116Z" fill="white"/>
    <path d="M96 116H92V120H96V116Z" fill="white"/>
    <path d="M108 116H104V120H108V116Z" fill="white"/>
    <path d="M136 116H132V120H136V116Z" fill="white"/>
    <path d="M140 116H136V120H140V116Z" fill="white"/>
    <path d="M148 116H144V120H148V116Z" fill="white"/>
    <path d="M152 116H148V120H152L152 116Z" fill="white"/>
    <path d="M164 116H160V120H164V116Z" fill="white"/>
    <path d="M172 116H168L168 120H172V116Z" fill="white"/>
    <path d="M188 116H184V120H188L188 116Z" fill="white"/>
    <path d="M196 116H192L192 120H196V116Z" fill="white"/>
    <path d="M12 120H8V124H12V120Z" fill="white"/>
    <path d="M24 120L20 120V124H24V120Z" fill="white"/>
    <path d="M28 120L24 120V124H28V120Z" fill="white"/>
    <path d="M44 120H40V124H44V120Z" fill="white"/>
    <path d="M56 120H52V124H56V120Z" fill="white"/>
    <path d="M64 120L60 120V124H64V120Z" fill="white"/>
    <path d="M76 120H72V124H76V120Z" fill="white"/>
    <path d="M96 120H92V124H96V120Z" fill="white"/>
    <path d="M104 120L100 120V124H104V120Z" fill="white"/>
    <path d="M112 120L108 120V124H112V120Z" fill="white"/>
    <path d="M120 120H116V124H120V120Z" fill="white"/>
    <path d="M124 120H120V124H124V120Z" fill="white"/>
    <path d="M128 120H124V124H128V120Z" fill="white"/>
    <path d="M132 120L128 120V124H132V120Z" fill="white"/>
    <path d="M148 120H144V124H148V120Z" fill="white"/>
    <path d="M152 120H148V124H152V120Z" fill="white"/>
    <path d="M160 120L156 120V124H160V120Z" fill="white"/>
    <path d="M168 120H164V124H168L168 120Z" fill="white"/>
    <path d="M176 120L172 120L172 124H176V120Z" fill="white"/>
    <path d="M180 120H176V124H180V120Z" fill="white"/>
    <path d="M184 120L180 120V124H184L184 120Z" fill="white"/>
    <path d="M188 120H184L184 124H188V120Z" fill="white"/>
    <path d="M196 120H192V124H196V120Z" fill="white"/>
    <path d="M8 124L4 124V128H8V124Z" fill="white"/>
    <path d="M12 124H8V128H12V124Z" fill="white"/>
    <path d="M20 124L16 124V128H20V124Z" fill="white"/>
    <path d="M24 124H20V128H24V124Z" fill="white"/>
    <path d="M32 124L28 124V128H32V124Z" fill="white"/>
    <path d="M48 124L44 124V128H48V124Z" fill="white"/>
    <path d="M56 124H52V128H56V124Z" fill="white"/>
    <path d="M60 124H56V128H60V124Z" fill="white"/>
    <path d="M64 124H60V128H64V124Z" fill="white"/>
    <path d="M80 124L76 124V128H80V124Z" fill="white"/>
    <path d="M88 124H84V128H88V124Z" fill="white"/>
    <path d="M92 124L88 124V128H92V124Z" fill="white"/>
    <path d="M108 124H104V128H108V124Z" fill="white"/>
    <path d="M112 124H108V128H112V124Z" fill="white"/>
    <path d="M116 124H112V128H116V124Z" fill="white"/>
    <path d="M120 124H116V128H120V124Z" fill="white"/>
    <path d="M140 124H136V128H140V124Z" fill="white"/>
    <path d="M156 124H152L152 128H156L156 124Z" fill="white"/>
    <path d="M160 124H156L156 128H160V124Z" fill="white"/>
    <path d="M164 124H160V128H164V124Z" fill="white"/>
    <path d="M172 124H168L168 128H172L172 124Z" fill="white"/>
    <path d="M180 124H176V128H180V124Z" fill="white"/>
    <path d="M184 124H180V128H184V124Z" fill="white"/>
    <path d="M4 128L0 128V132H4V128Z" fill="white"/>
    <path d="M16 128H12V132H16V128Z" fill="white"/>
    <path d="M20 128H16V132H20V128Z" fill="white"/>
    <path d="M28 128H24V132H28V128Z" fill="white"/>
    <path d="M32 128H28V132H32V128Z" fill="white"/>
    <path d="M36 128L32 128V132H36V128Z" fill="white"/>
    <path d="M40 128H36V132H40V128Z" fill="white"/>
    <path d="M52 128H48V132H52V128Z" fill="white"/>
    <path d="M56 128H52V132H56V128Z" fill="white"/>
    <path d="M68 128L64 128V132H68V128Z" fill="white"/>
    <path d="M80 128H76V132H80V128Z" fill="white"/>
    <path d="M84 128H80V132H84V128Z" fill="white"/>
    <path d="M96 128L92 128V132H96V128Z" fill="white"/>
    <path d="M100 128H96V132H100V128Z" fill="white"/>
    <path d="M104 128L100 128V132H104V128Z" fill="white"/>
    <path d="M120 128H116V132H120V128Z" fill="white"/>
    <path d="M128 128H124V132H128V128Z" fill="white"/>
    <path d="M132 128H128V132H132V128Z" fill="white"/>
    <path d="M136 128L132 128V132H136L136 128Z" fill="white"/>
    <path d="M144 128L140 128L140 132H144V128Z" fill="white"/>
    <path d="M148 128H144V132H148V128Z" fill="white"/>
    <path d="M152 128L148 128V132H152L152 128Z" fill="white"/>
    <path d="M176 128H172L172 132H176V128Z" fill="white"/>
    <path d="M180 128H176V132H180V128Z" fill="white"/>
    <path d="M188 128L184 128L184 132H188V128Z" fill="white"/>
    <path d="M20 132H16V136H20V132Z" fill="white"/>
    <path d="M24 132H20V136H24V132Z" fill="white"/>
    <path d="M36 132H32V136H36V132Z" fill="white"/>
    <path d="M40 132H36V136H40V132Z" fill="white"/>
    <path d="M48 132H44V136H48V132Z" fill="white"/>
    <path d="M52 132H48V136H52V132Z" fill="white"/>
    <path d="M56 132H52V136H56V132Z" fill="white"/>
    <path d="M60 132H56V136H60V132Z" fill="white"/>
    <path d="M64 132H60V136H64V132Z" fill="white"/>
    <path d="M68 132H64V136H68V132Z" fill="white"/>
    <path d="M88 132H84V136H88V132Z" fill="white"/>
    <path d="M92 132H88V136H92V132Z" fill="white"/>
    <path d="M100 132H96V136H100V132Z" fill="white"/>
    <path d="M104 132H100V136H104V132Z" fill="white"/>
    <path d="M108 132H104V136H108V132Z" fill="white"/>
    <path d="M112 132H108V136H112V132Z" fill="white"/>
    <path d="M116 132H112V136H116V132Z" fill="white"/>
    <path d="M124 132H120L120 136H124L124 132Z" fill="white"/>
    <path d="M128 132H124L124 136H128V132Z" fill="white"/>
    <path d="M148 132H144V136H148V132Z" fill="white"/>
    <path d="M152 132H148V136H152V132Z" fill="white"/>
    <path d="M156 132H152V136H156V132Z" fill="white"/>
    <path d="M160 132H156V136H160V132Z" fill="white"/>
    <path d="M188 132H184V136H188V132Z" fill="white"/>
    <path d="M4 136H0V140H4V136Z" fill="white"/>
    <path d="M20 136H16V140H20V136Z" fill="white"/>
    <path d="M24 136H20V140H24V136Z" fill="white"/>
    <path d="M28 136L24 136V140H28V136Z" fill="white"/>
    <path d="M36 136H32V140H36V136Z" fill="white"/>
    <path d="M40 136H36V140H40V136Z" fill="white"/>
    <path d="M52 136H48V140H52V136Z" fill="white"/>
    <path d="M56 136H52V140H56V136Z" fill="white"/>
    <path d="M60 136H56V140H60V136Z" fill="white"/>
    <path d="M72 136L68 136V140H72V136Z" fill="white"/>
    <path d="M84 136L80 136V140H84V136Z" fill="white"/>
    <path d="M88 136H84V140H88V136Z" fill="white"/>
    <path d="M92 136H88V140H92V136Z" fill="white"/>
    <path d="M96 136H92V140H96V136Z" fill="white"/>
    <path d="M104 136H100V140H104V136Z" fill="white"/>
    <path d="M108 136H104V140H108V136Z" fill="white"/>
    <path d="M128 136H124L124 140H128V136Z" fill="white"/>
    <path d="M136 136H132V140H136V136Z" fill="white"/>
    <path d="M152 136H148V140H152V136Z" fill="white"/>
    <path d="M156 136H152V140H156V136Z" fill="white"/>
    <path d="M172 136H168V140H172V136Z" fill="white"/>
    <path d="M180 136H176V140H180V136Z" fill="white"/>
    <path d="M184 136L180 136V140H184L184 136Z" fill="white"/>
    <path d="M192 136L188 136L188 140H192V136Z" fill="white"/>
    <path d="M12 140H8V144H12V140Z" fill="white"/>
    <path d="M20 140H16V144H20V140Z" fill="white"/>
    <path d="M36 140H32V144H36V140Z" fill="white"/>
    <path d="M44 140L40 140V144H44V140Z" fill="white"/>
    <path d="M68 140L64 140V144H68V140Z" fill="white"/>
    <path d="M76 140L72 140V144H76V140Z" fill="white"/>
    <path d="M84 140H80V144H84V140Z" fill="white"/>
    <path d="M92 140H88V144H92V140Z" fill="white"/>
    <path d="M104 140H100V144H104V140Z" fill="white"/>
    <path d="M112 140L108 140V144H112V140Z" fill="white"/>
    <path d="M128 140H124V144H128V140Z" fill="white"/>
    <path d="M136 140H132V144H136V140Z" fill="white"/>
    <path d="M140 140L136 140V144H140V140Z" fill="white"/>
    <path d="M160 140L156 140L156 144H160V140Z" fill="white"/>
    <path d="M164 140H160V144H164V140Z" fill="white"/>
    <path d="M188 140H184L184 144H188L188 140Z" fill="white"/>
    <path d="M192 140H188L188 144H192V140Z" fill="white"/>
    <path d="M196 140L192 140V144H196V140Z" fill="white"/>
    <path d="M8 144H4V148H8V144Z" fill="white"/>
    <path d="M12 144H8V148H12V144Z" fill="white"/>
    <path d="M28 144H24V148H28V144Z" fill="white"/>
    <path d="M36 144H32V148H36V144Z" fill="white"/>
    <path d="M40 144H36V148H40V144Z" fill="white"/>
    <path d="M64 144H60V148H64V144Z" fill="white"/>
    <path d="M72 144H68V148H72V144Z" fill="white"/>
    <path d="M84 144H80V148H84V144Z" fill="white"/>
    <path d="M96 144H92V148H96V144Z" fill="white"/>
    <path d="M100 144H96V148H100V144Z" fill="white"/>
    <path d="M104 144H100V148H104V144Z" fill="white"/>
    <path d="M112 144H108V148H112V144Z" fill="white"/>
    <path d="M116 144H112V148H116V144Z" fill="white"/>
    <path d="M124 144H120V148H124L124 144Z" fill="white"/>
    <path d="M132 144H128L128 148H132V144Z" fill="white"/>
    <path d="M136 144H132V148H136V144Z" fill="white"/>
    <path d="M164 144H160V148H164V144Z" fill="white"/>
    <path d="M172 144H168V148H172V144Z" fill="white"/>
    <path d="M176 144H172V148H176V144Z" fill="white"/>
    <path d="M180 144H176V148H180V144Z" fill="white"/>
    <path d="M184 144H180V148H184L184 144Z" fill="white"/>
    <path d="M16 148H12V152H16V148Z" fill="white"/>
    <path d="M36 148H32V152H36V148Z" fill="white"/>
    <path d="M40 148H36V152H40V148Z" fill="white"/>
    <path d="M44 148H40V152H44V148Z" fill="white"/>
    <path d="M48 148H44V152H48V148Z" fill="white"/>
    <path d="M56 148H52V152H56V148Z" fill="white"/>
    <path d="M64 148H60V152H64V148Z" fill="white"/>
    <path d="M76 148H72V152H76V148Z" fill="white"/>
    <path d="M84 148H80V152H84V148Z" fill="white"/>
    <path d="M92 148H88V152H92V148Z" fill="white"/>
    <path d="M96 148H92V152H96V148Z" fill="white"/>
    <path d="M120 148H116V152H120L120 148Z" fill="white"/>
    <path d="M124 148H120L120 152H124V148Z" fill="white"/>
    <path d="M132 148H128V152H132V148Z" fill="white"/>
    <path d="M140 148H136L136 152H140V148Z" fill="white"/>
    <path d="M148 148H144V152H148V148Z" fill="white"/>
    <path d="M152 148H148V152H152V148Z" fill="white"/>
    <path d="M160 148H156V152H160V148Z" fill="white"/>
    <path d="M172 148H168V152H172V148Z" fill="white"/>
    <path d="M180 148H176V152H180V148Z" fill="white"/>
    <path d="M184 148H180V152H184V148Z" fill="white"/>
    <path d="M188 148H184V152H188V148Z" fill="white"/>
    <path d="M192 148H188V152H192V148Z" fill="white"/>
    <path d="M8 152H4V156H8V152Z" fill="white"/>
    <path d="M24 152H20V156H24V152Z" fill="white"/>
    <path d="M28 152H24V156H28V152Z" fill="white"/>
    <path d="M36 152H32V156H36V152Z" fill="white"/>
    <path d="M40 152H36V156H40V152Z" fill="white"/>
    <path d="M44 152H40V156H44V152Z" fill="white"/>
    <path d="M72 152L68 152V156H72V152Z" fill="white"/>
    <path d="M80 152H76V156H80V152Z" fill="white"/>
    <path d="M88 152H84V156H88V152Z" fill="white"/>
    <path d="M108 152H104V156H108V152Z" fill="white"/>
    <path d="M116 152L112 152V156H116V152Z" fill="white"/>
    <path d="M120 152H116V156H120V152Z" fill="white"/>
    <path d="M124 152H120V156H124V152Z" fill="white"/>
    <path d="M128 152H124V156H128L128 152Z" fill="white"/>
    <path d="M136 152H132V156H136L136 152Z" fill="white"/>
    <path d="M148 152H144V156H148V152Z" fill="white"/>
    <path d="M160 152H156V156H160V152Z" fill="white"/>
    <path d="M168 152L164 152V156H168L168 152Z" fill="white"/>
    <path d="M180 152H176V156H180V152Z" fill="white"/>
    <path d="M184 152H180V156H184V152Z" fill="white"/>
    <path d="M188 152H184V156H188V152Z" fill="white"/>
    <path d="M192 152H188V156H192V152Z" fill="white"/>
    <path d="M8 156H4V160H8V156Z" fill="white"/>
    <path d="M12 156L8 156V160H12V156Z" fill="white"/>
    <path d="M16 156H12V160H16V156Z" fill="white"/>
    <path d="M40 156H36V160H40V156Z" fill="white"/>
    <path d="M44 156H40V160H44V156Z" fill="white"/>
    <path d="M64 156H60V160H64V156Z" fill="white"/>
    <path d="M68 156L64 156V160H68V156Z" fill="white"/>
    <path d="M76 156H72V160H76V156Z" fill="white"/>
    <path d="M88 156H84V160H88V156Z" fill="white"/>
    <path d="M92 156L88 156V160H92V156Z" fill="white"/>
    <path d="M96 156H92V160H96V156Z" fill="white"/>
    <path d="M104 156L100 156V160H104V156Z" fill="white"/>
    <path d="M108 156H104V160H108V156Z" fill="white"/>
    <path d="M112 156H108V160H112L112 156Z" fill="white"/>
    <path d="M116 156H112L112 160H116V156Z" fill="white"/>
    <path d="M124 156H120L120 160H124V156Z" fill="white"/>
    <path d="M132 156H128L128 160H132V156Z" fill="white"/>
    <path d="M136 156H132V160H136V156Z" fill="white"/>
    <path d="M156 156L152 156V160H156L156 156Z" fill="white"/>
    <path d="M160 156H156L156 160H160V156Z" fill="white"/>
    <path d="M164 156H160V160H164V156Z" fill="white"/>
    <path d="M168 156H164V160H168V156Z" fill="white"/>
    <path d="M172 156L168 156V160H172V156Z" fill="white"/>
    <path d="M196 156L192 156L192 160H196V156Z" fill="white"/>
    <path d="M4 160H0V164H4V160Z" fill="white"/>
    <path d="M8 160H4V164H8V160Z" fill="white"/>
    <path d="M12 160H8V164H12V160Z" fill="white"/>
    <path d="M28 160H24V164H28V160Z" fill="white"/>
    <path d="M36 160H32V164H36V160Z" fill="white"/>
    <path d="M40 160H36V164H40V160Z" fill="white"/>
    <path d="M48 160H44V164H48V160Z" fill="white"/>
    <path d="M52 160H48V164H52V160Z" fill="white"/>
    <path d="M56 160H52V164H56V160Z" fill="white"/>
    <path d="M60 160H56V164H60V160Z" fill="white"/>
    <path d="M68 160H64V164H68V160Z" fill="white"/>
    <path d="M92 160H88V164H92V160Z" fill="white"/>
    <path d="M96 160H92V164H96V160Z" fill="white"/>
    <path d="M100 160H96V164H100V160Z" fill="white"/>
    <path d="M104 160H100V164H104V160Z" fill="white"/>
    <path d="M108 160H104V164H108V160Z" fill="white"/>
    <path d="M112 160H108V164H112V160Z" fill="white"/>
    <path d="M120 160H116V164H120L120 160Z" fill="white"/>
    <path d="M124 160H120L120 164H124V160Z" fill="white"/>
    <path d="M128 160H124V164H128L128 160Z" fill="white"/>
    <path d="M132 160H128L128 164H132V160Z" fill="white"/>
    <path d="M136 160H132V164H136V160Z" fill="white"/>
    <path d="M140 160H136V164H140V160Z" fill="white"/>
    <path d="M152 160H148V164H152L152 160Z" fill="white"/>
    <path d="M156 160H152L152 164H156V160Z" fill="white"/>
    <path d="M164 160H160V164H164V160Z" fill="white"/>
    <path d="M168 160H164V164H168V160Z" fill="white"/>
    <path d="M172 160H168V164H172V160Z" fill="white"/>
    <path d="M176 160H172V164H176V160Z" fill="white"/>
    <path d="M180 160H176V164H180V160Z" fill="white"/>
    <path d="M184 160H180V164H184V160Z" fill="white"/>
    <path d="M188 160H184V164H188V160Z" fill="white"/>
    <path d="M192 160H188V164H192L192 160Z" fill="white"/>
    <path d="M56 164H52V168H56V164Z" fill="white"/>
    <path d="M60 164H56V168H60V164Z" fill="white"/>
    <path d="M72 164H68V168H72V164Z" fill="white"/>
    <path d="M76 164H72V168H76V164Z" fill="white"/>
    <path d="M80 164H76V168H80V164Z" fill="white"/>
    <path d="M88 164H84V168H88V164Z" fill="white"/>
    <path d="M92 164H88V168H92V164Z" fill="white"/>
    <path d="M108 164H104V168H108V164Z" fill="white"/>
    <path d="M112 164H108V168H112V164Z" fill="white"/>
    <path d="M116 164H112V168H116V164Z" fill="white"/>
    <path d="M124 164H120L120 168H124V164Z" fill="white"/>
    <path d="M136 164H132V168H136V164Z" fill="white"/>
    <path d="M144 164H140L140 168H144V164Z" fill="white"/>
    <path d="M164 164H160V168H164V164Z" fill="white"/>
    <path d="M180 164H176V168H180V164Z" fill="white"/>
    <path d="M4 168H0V172H4V168Z" fill="white"/>
    <path d="M8 168H4V172H8V168Z" fill="white"/>
    <path d="M12 168H8V172H12V168Z" fill="white"/>
    <path d="M16 168H12V172H16V168Z" fill="white"/>
    <path d="M20 168H16V172H20V168Z" fill="white"/>
    <path d="M24 168H20V172H24V168Z" fill="white"/>
    <path d="M28 168H24V172H28V168Z" fill="white"/>
    <path d="M36 168H32V172H36V168Z" fill="white"/>
    <path d="M44 168H40V172H44V168Z" fill="white"/>
    <path d="M52 168L48 168V172H52V168Z" fill="white"/>
    <path d="M56 168H52V172H56V168Z" fill="white"/>
    <path d="M60 168H56V172H60V168Z" fill="white"/>
    <path d="M68 168L64 168V172H68V168Z" fill="white"/>
    <path d="M72 168H68V172H72V168Z" fill="white"/>
    <path d="M76 168H72V172H76V168Z" fill="white"/>
    <path d="M92 168H88V172H92V168Z" fill="white"/>
    <path d="M100 168H96V172H100V168Z" fill="white"/>
    <path d="M108 168H104V172H108V168Z" fill="white"/>
    <path d="M112 168H108V172H112V168Z" fill="white"/>
    <path d="M116 168H112V172H116V168Z" fill="white"/>
    <path d="M120 168H116V172H120L120 168Z" fill="white"/>
    <path d="M132 168L128 168V172H132V168Z" fill="white"/>
    <path d="M140 168H136L136 172H140L140 168Z" fill="white"/>
    <path d="M148 168L144 168V172H148V168Z" fill="white"/>
    <path d="M156 168H152V172H156V168Z" fill="white"/>
    <path d="M160 168L156 168V172H160V168Z" fill="white"/>
    <path d="M164 168H160V172H164V168Z" fill="white"/>
    <path d="M172 168H168V172H172V168Z" fill="white"/>
    <path d="M180 168H176V172H180V168Z" fill="white"/>
    <path d="M184 168L180 168V172H184V168Z" fill="white"/>
    <path d="M192 168H188V172H192V168Z" fill="white"/>
    <path d="M196 168H192V172H196V168Z" fill="white"/>
    <path d="M4 172H0V176H4V172Z" fill="white"/>
    <path d="M28 172H24V176H28V172Z" fill="white"/>
    <path d="M48 172H44V176H48V172Z" fill="white"/>
    <path d="M60 172H56V176H60V172Z" fill="white"/>
    <path d="M64 172H60V176H64V172Z" fill="white"/>
    <path d="M72 172H68V176H72V172Z" fill="white"/>
    <path d="M80 172L76 172V176H80V172Z" fill="white"/>
    <path d="M92 172H88V176H92V172Z" fill="white"/>
    <path d="M108 172H104V176H108V172Z" fill="white"/>
    <path d="M112 172H108V176H112V172Z" fill="white"/>
    <path d="M116 172H112V176H116V172Z" fill="white"/>
    <path d="M144 172H140L140 176H144V172Z" fill="white"/>
    <path d="M148 172H144V176H148V172Z" fill="white"/>
    <path d="M152 172H148V176H152L152 172Z" fill="white"/>
    <path d="M160 172H156L156 176H160V172Z" fill="white"/>
    <path d="M164 172H160V176H164V172Z" fill="white"/>
    <path d="M180 172H176V176H180V172Z" fill="white"/>
    <path d="M184 172H180V176H184V172Z" fill="white"/>
    <path d="M192 172H188V176H192V172Z" fill="white"/>
    <path d="M4 176H0V180H4V176Z" fill="white"/>
    <path d="M12 176H8V180H12V176Z" fill="white"/>
    <path d="M16 176H12V180H16V176Z" fill="white"/>
    <path d="M20 176H16V180H20V176Z" fill="white"/>
    <path d="M28 176H24V180H28V176Z" fill="white"/>
    <path d="M44 176H40V180H44V176Z" fill="white"/>
    <path d="M48 176H44V180H48V176Z" fill="white"/>
    <path d="M64 176H60V180H64V176Z" fill="white"/>
    <path d="M80 176H76V180H80V176Z" fill="white"/>
    <path d="M84 176H80V180H84V176Z" fill="white"/>
    <path d="M92 176H88V180H92V176Z" fill="white"/>
    <path d="M96 176H92V180H96V176Z" fill="white"/>
    <path d="M100 176H96V180H100V176Z" fill="white"/>
    <path d="M104 176H100V180H104V176Z" fill="white"/>
    <path d="M108 176H104V180H108V176Z" fill="white"/>
    <path d="M116 176H112L112 180H116V176Z" fill="white"/>
    <path d="M120 176H116V180H120V176Z" fill="white"/>
    <path d="M132 176H128V180H132V176Z" fill="white"/>
    <path d="M140 176H136V180H140L140 176Z" fill="white"/>
    <path d="M164 176H160V180H164V176Z" fill="white"/>
    <path d="M168 176H164V180H168V176Z" fill="white"/>
    <path d="M172 176H168V180H172V176Z" fill="white"/>
    <path d="M176 176H172V180H176V176Z" fill="white"/>
    <path d="M180 176H176V180H180V176Z" fill="white"/>
    <path d="M4 180H0V184H4V180Z" fill="white"/>
    <path d="M12 180H8V184H12V180Z" fill="white"/>
    <path d="M16 180H12V184H16V180Z" fill="white"/>
    <path d="M20 180H16V184H20V180Z" fill="white"/>
    <path d="M28 180H24V184H28V180Z" fill="white"/>
    <path d="M36 180H32V184H36V180Z" fill="white"/>
    <path d="M40 180H36V184H40V180Z" fill="white"/>
    <path d="M44 180H40V184H44V180Z" fill="white"/>
    <path d="M48 180H44V184H48V180Z" fill="white"/>
    <path d="M60 180H56V184H60V180Z" fill="white"/>
    <path d="M64 180H60V184H64V180Z" fill="white"/>
    <path d="M84 180H80V184H84V180Z" fill="white"/>
    <path d="M88 180H84V184H88V180Z" fill="white"/>
    <path d="M96 180H92V184H96V180Z" fill="white"/>
    <path d="M108 180H104V184H108V180Z" fill="white"/>
    <path d="M112 180H108V184H112L112 180Z" fill="white"/>
    <path d="M120 180H116V184H120V180Z" fill="white"/>
    <path d="M124 180H120V184H124V180Z" fill="white"/>
    <path d="M128 180H124V184H128L128 180Z" fill="white"/>
    <path d="M132 180H128L128 184H132V180Z" fill="white"/>
    <path d="M140 180H136V184H140V180Z" fill="white"/>
    <path d="M144 180H140V184H144V180Z" fill="white"/>
    <path d="M160 180H156V184H160V180Z" fill="white"/>
    <path d="M164 180H160V184H164V180Z" fill="white"/>
    <path d="M168 180H164V184H168V180Z" fill="white"/>
    <path d="M184 180H180V184H184V180Z" fill="white"/>
    <path d="M4 184H0V188H4V184Z" fill="white"/>
    <path d="M12 184H8V188H12V184Z" fill="white"/>
    <path d="M16 184H12V188H16V184Z" fill="white"/>
    <path d="M20 184H16V188H20V184Z" fill="white"/>
    <path d="M28 184H24V188H28V184Z" fill="white"/>
    <path d="M60 184H56V188H60V184Z" fill="white"/>
    <path d="M64 184H60V188H64V184Z" fill="white"/>
    <path d="M76 184H72V188H76V184Z" fill="white"/>
    <path d="M80 184L76 184V188H80V184Z" fill="white"/>
    <path d="M88 184H84V188H88V184Z" fill="white"/>
    <path d="M108 184H104V188H108V184Z" fill="white"/>
    <path d="M112 184H108V188H112V184Z" fill="white"/>
    <path d="M120 184H116V188H120V184Z" fill="white"/>
    <path d="M128 184H124L124 188H128V184Z" fill="white"/>
    <path d="M132 184H128V188H132V184Z" fill="white"/>
    <path d="M136 184H132V188H136L136 184Z" fill="white"/>
    <path d="M140 184H136L136 188H140V184Z" fill="white"/>
    <path d="M156 184L152 184V188H156L156 184Z" fill="white"/>
    <path d="M160 184H156L156 188H160V184Z" fill="white"/>
    <path d="M164 184H160V188H164V184Z" fill="white"/>
    <path d="M172 184L168 184L168 188H172V184Z" fill="white"/>
    <path d="M196 184H192V188H196V184Z" fill="white"/>
    <path d="M4 188H0V192H4V188Z" fill="white"/>
    <path d="M28 188H24V192H28V188Z" fill="white"/>
    <path d="M36 188H32V192H36V188Z" fill="white"/>
    <path d="M44 188H40V192H44V188Z" fill="white"/>
    <path d="M48 188H44V192H48V188Z" fill="white"/>
    <path d="M64 188H60V192H64V188Z" fill="white"/>
    <path d="M72 188L68 188V192H72V188Z" fill="white"/>
    <path d="M76 188H72V192H76V188Z" fill="white"/>
    <path d="M80 188H76V192H80V188Z" fill="white"/>
    <path d="M92 188L88 188V192H92V188Z" fill="white"/>
    <path d="M96 188H92V192H96V188Z" fill="white"/>
    <path d="M108 188H104V192H108V188Z" fill="white"/>
    <path d="M124 188H120L120 192H124L124 188Z" fill="white"/>
    <path d="M136 188H132V192H136V188Z" fill="white"/>
    <path d="M140 188H136V192H140V188Z" fill="white"/>
    <path d="M156 188H152V192H156V188Z" fill="white"/>
    <path d="M164 188H160V192H164V188Z" fill="white"/>
    <path d="M168 188H164V192H168L168 188Z" fill="white"/>
    <path d="M176 188L172 188L172 192H176V188Z" fill="white"/>
    <path d="M188 188H184V192H188V188Z" fill="white"/>
    <path d="M196 188H192V192H196V188Z" fill="white"/>
    <path d="M4 192H0V196H4V192Z" fill="white"/>
    <path d="M8 192L4 192V196H8V192Z" fill="white"/>
    <path d="M12 192H8V196H12V192Z" fill="white"/>
    <path d="M16 192H12V196H16V192Z" fill="white"/>
    <path d="M20 192H16V196H20V192Z" fill="white"/>
    <path d="M24 192L20 192V196H24V192Z" fill="white"/>
    <path d="M28 192H24V196H28V192Z" fill="white"/>
    <path d="M36 192H32V196H36V192Z" fill="white"/>
    <path d="M40 192H36V196H40V192Z" fill="white"/>
    <path d="M44 192H40V196H44V192Z" fill="white"/>
    <path d="M52 192L48 192V196H52V192Z" fill="white"/>
    <path d="M56 192H52V196H56V192Z" fill="white"/>
    <path d="M60 192L56 192V196H60V192Z" fill="white"/>
    <path d="M68 192H64V196H68V192Z" fill="white"/>
    <path d="M84 192L80 192V196H84V192Z" fill="white"/>
    <path d="M88 192L84 192V196H88V192Z" fill="white"/>
    <path d="M92 192H88V196H92V192Z" fill="white"/>
    <path d="M100 192L96 192V196H100V192Z" fill="white"/>
    <path d="M108 192H104V196H108V192Z" fill="white"/>
    <path d="M116 192H112V196H116V192Z" fill="white"/>
    <path d="M120 192L116 192V196H120L120 192Z" fill="white"/>
    <path d="M140 192H136L136 196H140V192Z" fill="white"/>
    <path d="M148 192H144V196H148V192Z" fill="white"/>
    <path d="M156 192H152V196H156V192Z" fill="white"/>
    <path d="M168 192H164V196H168V192Z" fill="white"/>
    <path d="M184 192L180 192V196H184L184 192Z" fill="white"/>
    <path d="M188 192H184L184 196H188V192Z" fill="white"/>
    <path d="M196 192H192V196H196V192Z" fill="white"/>
</svg>
