<svg xmlns="http://www.w3.org/2000/svg" display="none">

    <symbol id="view" viewBox="0 0 20 20">
        <path d="M1.25 10C1.25 10 4.43182 3.75 10 3.75C15.5682 3.75 18.75 10 18.75 10C18.75 10 15.5682 16.25 10 16.25C4.43182 16.25 1.25 10 1.25 10Z"
              stroke-width="1.5" stroke-linecap="round" stroke-linejoin="round"/>
        <path d="M10 12.5C11.3807 12.5 12.5 11.3807 12.5 10C12.5 8.61929 11.3807 7.5 10 7.5C8.61929 7.5 7.5 8.61929 7.5 10C7.5 11.3807 8.61929 12.5 10 12.5Z"
              stroke-width="1.5" stroke-linecap="round" stroke-linejoin="round"/>
    </symbol>

    <symbol id="instagram" viewBox="0 0 24 24">
        <path d="M12.0002 2.31896C15.1533 2.31896 15.5267 2.331 16.7721 2.38782C17.9234 2.44036 18.5486 2.63269 18.9648 2.79441C19.4777 2.98372 19.9417 3.28557 20.3226 3.67777C20.7148 4.05868 21.0166 4.52264 21.2059 5.03555C21.3677 5.45166 21.56 6.07693 21.6125 7.22827C21.6693 8.4735 21.6814 8.84696 21.6814 12.0001C21.6814 15.1533 21.6693 15.5267 21.6125 16.772C21.56 17.9234 21.3676 18.5486 21.2059 18.9647C21.0095 19.474 20.7086 19.9365 20.3226 20.3225C19.9366 20.7085 19.4741 21.0094 18.9648 21.2059C18.5487 21.3676 17.9234 21.56 16.7721 21.6125C15.5271 21.6693 15.1536 21.6813 12.0002 21.6813C8.84678 21.6813 8.47347 21.6693 7.22833 21.6125C6.07698 21.5599 5.45177 21.3675 5.03561 21.2059C4.5227 21.0166 4.05873 20.7147 3.67783 20.3225C3.28563 19.9416 2.98378 19.4776 2.79447 18.9647C2.63275 18.5486 2.44037 17.9234 2.38787 16.772C2.33106 15.5268 2.31902 15.1533 2.31902 12.0001C2.31902 8.84696 2.33106 8.4736 2.38787 7.22827C2.44042 6.07693 2.63275 5.45171 2.79447 5.03555C2.9838 4.52262 3.28568 4.05863 3.67792 3.67772C4.05883 3.28552 4.52279 2.98367 5.0357 2.79436C5.45181 2.63265 6.07708 2.44027 7.22842 2.38777C8.47366 2.33096 8.84711 2.31891 12.0003 2.31891L12.0002 2.31896ZM12.0003 0.191208C8.7932 0.191208 8.39092 0.204802 7.13158 0.26227C5.87462 0.319645 5.01625 0.519239 4.26512 0.811177C3.47718 1.10769 2.76341 1.57251 2.17356 2.17322C1.57271 2.76303 1.10776 3.47681 0.811141 4.26479C0.519437 5.01596 0.319844 5.87433 0.262703 7.13129C0.205 8.39063 0.191406 8.79291 0.191406 12C0.191406 15.2071 0.205 15.6094 0.262703 16.8687C0.320078 18.1257 0.519672 18.984 0.811609 19.7352C1.10812 20.5231 1.57294 21.2369 2.17366 21.8267C2.7635 22.4275 3.47728 22.8923 4.26522 23.1888C5.01639 23.4807 5.87477 23.6803 7.13167 23.7377C8.3912 23.7952 8.79334 23.8088 12.0004 23.8088C15.2074 23.8088 15.6098 23.7952 16.8691 23.7377C18.1261 23.6803 18.9844 23.4807 19.7356 23.1888C20.52 22.8854 21.2324 22.4215 21.8271 21.8267C22.4219 21.232 22.8858 20.5196 23.1892 19.7352C23.4811 18.984 23.6807 18.1256 23.7381 16.8687C23.7955 15.6092 23.8091 15.2071 23.8091 12C23.8091 8.79296 23.7955 8.39063 23.7381 7.13129C23.6807 5.87433 23.4811 5.01596 23.1892 4.26483C22.8927 3.47689 22.4278 2.76311 21.8271 2.17327C21.2373 1.57244 20.5234 1.10752 19.7354 0.810942C18.9842 0.519239 18.1259 0.319645 16.8689 0.262505C15.6096 0.204802 15.2073 0.191208 12.0002 0.191208H12.0003Z"/>
        <path d="M12 5.93602C10.8007 5.93602 9.62827 6.29167 8.63105 6.95799C7.63384 7.6243 6.8566 8.57137 6.39763 9.67942C5.93866 10.7875 5.81858 12.0067 6.05256 13.183C6.28654 14.3593 6.86407 15.4398 7.71214 16.2879C8.5602 17.136 9.6407 17.7135 10.817 17.9475C11.9933 18.1815 13.2126 18.0614 14.3206 17.6024C15.4287 17.1434 16.3757 16.3662 17.042 15.369C17.7084 14.3718 18.064 13.1993 18.064 12C18.064 10.3917 17.4251 8.84934 16.2879 7.71212C15.1507 6.5749 13.6083 5.93602 12 5.93602ZM12 15.9362C11.2215 15.9362 10.4605 15.7054 9.81318 15.2728C9.16588 14.8403 8.66137 14.2256 8.36345 13.5063C8.06553 12.787 7.98759 11.9956 8.13947 11.2321C8.29136 10.4685 8.66625 9.76714 9.21675 9.21665C9.76724 8.66616 10.4686 8.29128 11.2322 8.1394C11.9957 7.98752 12.7872 8.06548 13.5064 8.3634C14.2257 8.66133 14.8404 9.16584 15.2729 9.81315C15.7054 10.4605 15.9363 11.2215 15.9363 12C15.9363 13.044 15.5216 14.0452 14.7834 14.7833C14.0452 15.5215 13.044 15.9362 12 15.9362Z"/>
        <path d="M18.3038 7.11347C19.0864 7.11347 19.7208 6.47904 19.7208 5.69643C19.7208 4.91383 19.0864 4.2794 18.3038 4.2794C17.5211 4.2794 16.8867 4.91383 16.8867 5.69643C16.8867 6.47904 17.5211 7.11347 18.3038 7.11347Z"/>
    </symbol>

    <symbol id="vk" viewBox="0 0 17 11">
        <path d="M8.77 10.29C3.3 10.29 0.180049 6.54005 0.0500488 0.300049H2.79005C2.88005 4.88005 4.9 6.82005 6.5 7.22005V0.300049H9.0801V4.25005C10.6601 4.08005 12.3199 2.28005 12.8799 0.300049H15.4599C15.0299 2.74005 13.2299 4.54005 11.9499 5.28005C13.2299 5.88005 15.28 7.45005 16.06 10.29H13.2199C12.6099 8.39005 11.0901 6.92005 9.0801 6.72005V10.29H8.77Z"/>
    </symbol>

    <symbol id="search" viewBox="0 0 18 18">
        <path d="M8.16667 14.8333C11.8486 14.8333 14.8333 11.8486 14.8333 8.16667C14.8333 4.48477 11.8486 1.5 8.16667 1.5C4.48477 1.5 1.5 4.48477 1.5 8.16667C1.5 11.8486 4.48477 14.8333 8.16667 14.8333Z"
              stroke-width="1.5" stroke-linecap="round" stroke-linejoin="round"/>
        <path d="M16.5 16.5L12.875 12.875" stroke-width="1.5" stroke-linecap="round"
              stroke-linejoin="round"/>
    </symbol>

    <symbol id="close" viewBox="0 0 16 16">
        <path d="M12 4L4 12" stroke-width="1.5" stroke-linecap="round" stroke-linejoin="round"/>
        <path d="M4 4L12 12" stroke-width="1.5" stroke-linecap="round" stroke-linejoin="round"/>
    </symbol>

    <symbol id="burger" viewBox="0 0 24 24">
        <path d="M3 12H21" stroke-width="1.5" stroke-linecap="round" stroke-linejoin="round"/>
        <path d="M3 6H21" stroke-width="1.5" stroke-linecap="round" stroke-linejoin="round"/>
        <path d="M3 18H21" stroke-width="1.5" stroke-linecap="round" stroke-linejoin="round"/>
    </symbol>


    <symbol id="check" viewBox="0 0 10 8">
        <path d="M8.33342 1.5L3.20521 6.5L1.66675 5.0015" stroke-width="1.5" stroke-linecap="round"
              stroke-linejoin="round"/>
    </symbol>

    <symbol id="dots" viewBox="0 0 24 24">
        <path d="M12 13C12.5523 13 13 12.5523 13 12C13 11.4477 12.5523 11 12 11C11.4477 11 11 11.4477 11 12C11 12.5523 11.4477 13 12 13Z"
              stroke-width="2" stroke-linecap="round" stroke-linejoin="round"/>
        <path d="M19 13C19.5523 13 20 12.5523 20 12C20 11.4477 19.5523 11 19 11C18.4477 11 18 11.4477 18 12C18 12.5523 18.4477 13 19 13Z"
              stroke-width="2" stroke-linecap="round" stroke-linejoin="round"/>
        <path d="M5 13C5.55228 13 6 12.5523 6 12C6 11.4477 5.55228 11 5 11C4.44772 11 4 11.4477 4 12C4 12.5523 4.44772 13 5 13Z"
              stroke-width="2" stroke-linecap="round" stroke-linejoin="round"/>
    </symbol>

    <symbol id="replace" viewBox="0 0 16 14">
        <path d="M0.666664 1.66666V5.66666H4.66666" stroke-width="1.5" stroke-linecap="round"
              stroke-linejoin="round"/>
        <path d="M15.3333 12.3333V8.33334H11.3333" stroke-width="1.5" stroke-linecap="round"
              stroke-linejoin="round"/>
        <path d="M13.66 5C13.3219 4.04453 12.7472 3.19027 11.9897 2.51695C11.2321 1.84362 10.3164 1.37318 9.32781 1.14951C8.33926 0.925836 7.31016 0.95623 6.33654 1.23785C5.36291 1.51947 4.4765 2.04314 3.76 2.76L0.666664 5.66667M15.3333 8.33334L12.24 11.24C11.5235 11.9569 10.6371 12.4805 9.66346 12.7622C8.68983 13.0438 7.66074 13.0742 6.67219 12.8505C5.68364 12.6268 4.76786 12.1564 4.01031 11.4831C3.25275 10.8097 2.67811 9.95548 2.34 9"
              stroke-width="1.5" stroke-linecap="round" stroke-linejoin="round"/>
    </symbol>

    <symbol id="file" viewBox="0 0 20 20">
        <path d="M17.8666 9.20835L10.2082 16.8667C9.27005 17.8049 7.99757 18.332 6.67075 18.332C5.34393 18.332 4.07145 17.8049 3.13325 16.8667C2.19505 15.9285 1.66797 14.656 1.66797 13.3292C1.66797 12.0024 2.19505 10.7299 3.13325 9.79168L10.7916 2.13335C11.4171 1.50788 12.2654 1.15649 13.1499 1.15649C14.0345 1.15649 14.8828 1.50788 15.5082 2.13335C16.1337 2.75882 16.4851 3.60713 16.4851 4.49168C16.4851 5.37623 16.1337 6.22455 15.5082 6.85002L7.84158 14.5083C7.52885 14.8211 7.10469 14.9968 6.66242 14.9968C6.22014 14.9968 5.79598 14.8211 5.48325 14.5083C5.17051 14.1956 4.99482 13.7715 4.99482 13.3292C4.99482 12.8869 5.17051 12.4627 5.48325 12.15L12.5582 5.08335"
              stroke-width="1.5" stroke-linecap="round" stroke-linejoin="round"/>
    </symbol>

</svg>